<?xml version="1.0" encoding="utf-8"?>
<!-- Generator: Adobe Illustrator 22.1.0, SVG Export Plug-In . SVG Version: 6.00 Build 0)  -->
<svg version="1.1" id="Layer_1" xmlns="http://www.w3.org/2000/svg" xmlns:xlink="http://www.w3.org/1999/xlink" x="0px" y="0px"
	 viewBox="0 0 350 150" style="enable-background:new 0 0 350 150;" xml:space="preserve">
<style type="text/css">
	.st0{fill:none;}
	.st1{fill:#F7F1F0;}
	.st2{font-family:'LilitaOne';}
	.st3{font-size:48px;}
	.st4{fill:#9570EE;}
	.st5{fill:#FFFFFF;}
</style>
<rect x="-21" y="-6.9" class="st0" width="299.4" height="179.5"/>
<text transform="matrix(1 0 0 1 42.1699 99.8003)" class="st1 st2 st3">REKORD</text>
<text transform="matrix(1 0 0 1 220.874 99.7651)" class="st4 st2 st3">SPACE</text>
<g>
	<g>
		<path class="st5" d="M11.8,67.4c0.8,0,1.5,0,2.4,0c0-0.7-0.1-1.3,0-2c0-0.3,0.3-0.8,0.5-0.9c0.5-0.1,0.6,0.4,0.6,0.9
			c0,0.6,0,1.3,0,1.9c0.8,0,1.5,0,2.4,0c0-0.7,0-1.3,0-1.9c0-0.4,0-1,0.6-0.9c0.2,0,0.4,0.6,0.5,0.9c0.1,0.6,0,1.3,0,1.9
			c0.8,0,1.5,0,2.4,0c0-0.7,0-1.4,0-2.1c0-0.3,0.3-0.5,0.5-0.8c0.2,0.3,0.5,0.5,0.5,0.8c0.1,0.7,0,1.3,0,2c0.8,0,1.6,0,2.4,0
			c0-0.7,0-1.3,0-2c0-0.4,0-0.9,0.5-0.8c0.2,0,0.4,0.5,0.5,0.8c0.1,0.7,0,1.3,0,2c1.3,0.4,1.4,0.5,1.4,2c0,9.9,0,19.8,0,29.6
			c0,1.1-0.4,1.5-1.4,1.5c-6.3,0-12.6,0-19,0c-0.9,0-1.8,0-2.7,0c-1,0-1.4-0.4-1.4-1.5c0-10,0-19.9,0-29.9c0-1.2,0.2-1.5,1.4-1.7
			c0-0.7,0-1.4,0-2.1c0-0.3,0.3-0.5,0.5-0.7c0.2,0.2,0.5,0.5,0.5,0.7c0.1,0.7,0,1.4,0,2.2c0.8,0,1.6,0,2.4,0c0-0.6,0-1.2,0-1.8
			c0-0.5-0.1-1,0.5-1c0.6,0,0.5,0.6,0.5,1.1c0,0.6,0,1.1,0,1.8c0.8,0,1.5,0,2.4,0c0-0.7-0.1-1.4,0-2c0-0.3,0.3-0.5,0.5-0.8
			c0.2,0.3,0.5,0.5,0.5,0.8C11.8,66,11.8,66.7,11.8,67.4z M18.5,67.9c0.1,0.4,0.2,0.7,0.4,1c0.3,0.6,0.3,1.1-0.1,1.6
			c-0.4,0.5-1,0.5-1.4,0c-0.4-0.5-0.5-1-0.1-1.6c0.2-0.3,0.2-0.6,0.4-1c-0.9,0-1.7,0-2.6,0c0.2,0.4,0.2,0.7,0.4,1
			c0.3,0.6,0.3,1.1-0.1,1.6c-0.4,0.5-1,0.5-1.4,0c-0.4-0.5-0.4-1-0.1-1.6c0.2-0.3,0.2-0.6,0.4-1c-0.9,0-1.6,0-2.5,0
			c0.2,0.4,0.2,0.7,0.4,1c0.3,0.6,0.3,1.1-0.2,1.6c-0.5,0.5-1,0.5-1.4,0c-0.4-0.5-0.4-1-0.1-1.6c0.2-0.3,0.2-0.6,0.4-1
			c-0.9,0-1.7,0-2.6,0c0.1,0.4,0.2,0.7,0.3,1c0.4,0.6,0.4,1.2-0.1,1.7c-0.4,0.4-0.9,0.4-1.3-0.1c-0.4-0.5-0.4-1-0.1-1.6
			c0.2-0.2,0.2-0.6,0.3-0.9c-0.9,0-1.7,0-2.6,0c0.2,0.4,0.3,0.8,0.5,1C5.5,69.5,5.5,70,5,70.5c-0.5,0.5-1,0.4-1.4,0
			c-0.4-0.5-0.4-1-0.1-1.6c0.2-0.3,0.2-0.6,0.4-1c-1,0-1.1,0.2-1.1,1.2c0,9,0,18,0,26.9c0,1.6,0.1,1.7,1.6,1.7c4.7,0,9.5,0,14.2,0
			c2.3,0,4.6,0,6.9,0c0.8,0,1.1-0.3,1.1-1.2c0-0.8,0-1.5,0-2.3c0-8.4,0-16.9,0-25.3c0-1-0.2-1.2-1.1-1.1c0.1,0.3,0.2,0.6,0.3,0.9
			c0.4,0.6,0.4,1.2-0.1,1.6c-0.4,0.4-0.9,0.4-1.3,0c-0.5-0.5-0.5-1-0.2-1.6c0.2-0.3,0.3-0.6,0.4-1c-0.9,0-1.7,0-2.6,0
			c0.1,0.4,0.2,0.7,0.4,1c0.4,0.6,0.4,1.1-0.1,1.6c-0.4,0.4-0.9,0.4-1.3,0c-0.5-0.5-0.5-1-0.1-1.6c0.2-0.3,0.2-0.6,0.4-1
			C20.2,67.9,19.4,67.9,18.5,67.9z M26.4,99.2c0-0.1,0-0.2-0.1-0.3c-7.8,0-15.6,0-23.4,0c0.3,0.3,0.6,0.5,1,0.5c1.7,0,3.3,0,5,0
			c5.5,0,11,0,16.5,0C25.7,99.4,26,99.2,26.4,99.2z M26.5,98.3c0-0.1-0.1-0.1-0.1-0.2c-7.9,0-15.7,0-23.6,0c0.2,0.3,0.5,0.4,0.8,0.4
			c0.9,0,1.8,0,2.6,0c6.3,0,12.6,0,19,0C25.7,98.5,26.1,98.4,26.5,98.3z M26.5,99.8c0-0.1,0-0.1-0.1-0.2c-7.9,0-15.7,0-23.6,0
			c0.3,0.3,0.6,0.5,1,0.5c7.2,0,14.4,0,21.6,0C25.8,100.1,26.2,99.9,26.5,99.8z M11.1,69.5c0.1,0,0.1,0,0.2,0c0-1.5,0-3,0-4.6
			c-0.1,0-0.1,0-0.2,0C11.1,66.5,11.1,68,11.1,69.5z M18.2,65c-0.1,0-0.1,0-0.2,0c0,1.5,0,3,0,4.5c0.1,0,0.1,0,0.2,0
			C18.2,68,18.2,66.5,18.2,65z M14.6,69.5c0.1,0,0.1,0,0.2,0c0-1.5,0-3,0-4.6c-0.1,0-0.1,0-0.2,0C14.6,66.5,14.6,68,14.6,69.5z
			 M4.2,69.5c0.1,0,0.1,0,0.2,0c0-1.5,0-3,0-4.5c-0.1,0-0.1,0-0.2,0C4.2,66.5,4.2,68,4.2,69.5z M25.1,65c-0.1,0-0.1,0-0.2,0
			c0,1.5,0,3,0,4.5c0.1,0,0.1,0,0.2,0C25.1,68,25.1,66.5,25.1,65z M21.5,69.5c0.1,0,0.2,0,0.3,0c0-1.5,0.1-3,0-4.5
			c-0.1,0-0.2,0-0.2,0C21.5,66.5,21.5,68,21.5,69.5z M7.9,65c-0.1,0-0.1,0-0.2,0c0,1.5,0,3,0,4.5c0.1,0,0.1,0,0.2,0
			C7.9,68,7.9,66.5,7.9,65z M5.2,69.7C5.1,69.6,5,69.5,5,69.4c-0.2,0.2-0.4,0.5-0.6,0.5c-0.2,0-0.4-0.3-0.7-0.4c0,0.5,0.2,1,0.7,0.9
			C4.6,70.3,4.9,69.9,5.2,69.7z M17.4,69.3c0,0.6,0.2,1.1,0.7,1.1c0.5,0,0.8-0.4,0.6-1C18.2,70.2,18,70.2,17.4,69.3z M22.2,69.3
			c-0.4,1.1-0.8,0.6-1.3,0.1c0,0.7,0.2,1,0.7,1C22,70.4,22.3,70,22.2,69.3z M24.3,69.4c-0.1,0.7,0.2,1,0.6,1c0.5,0,0.8-0.3,0.6-1
			C25.1,70.2,24.8,70.1,24.3,69.4z M10.6,69.3c-0.1,0.7,0.2,1,0.6,1.1c0.5,0,0.8-0.4,0.7-1C11.3,70.2,11.1,70.2,10.6,69.3z M14,69.4
			c-0.1,0.6,0.2,1,0.7,1c0.5,0,0.8-0.4,0.6-1C14.8,70.2,14.6,70.2,14,69.4z M8.4,69.5c-0.5,0.6-0.9,0.6-1.4,0
			c0.2,0.4,0.4,0.8,0.7,0.9C8.2,70.5,8.4,70.1,8.4,69.5z"/>
	</g>
</g>
</svg>
