<?xml version="1.0" encoding="utf-8"?>
<!-- Generator: Adobe Illustrator 22.1.0, SVG Export Plug-In . SVG Version: 6.00 Build 0)  -->
<svg version="1.1" id="Layer_1" xmlns="http://www.w3.org/2000/svg" xmlns:xlink="http://www.w3.org/1999/xlink" x="0px" y="0px"
	 viewBox="0 0 1000 700" style="enable-background:new 0 0 1000 700;" xml:space="preserve">
<style type="text/css">
	.st0{fill:#6DB8FF;}
	.st1{fill:#489AFF;}
	.st2{fill:#E3EAFF;}
	.st3{fill:#2F6DFF;}
	.st4{fill:#C8D6F2;}
	.st5{opacity:0.2;fill:#424261;}
	.st6{opacity:0.21;fill:#E3EAFF;}
	.st7{fill:#F9FBFC;}
	.st8{fill:#9570EE;}
	.st9{fill:#BB87EE;}
	.st10{fill:#7F57EE;}
	.st11{fill:#CED6FF;}
	.st12{fill:#F7D3A9;}
	.st13{fill:#544DB8;}
	.st14{fill:#FF8B40;}
	.st15{fill:#CDD4FF;}
	.st16{fill:#FFC240;}
	.st17{fill:#90C240;}
	.st18{fill:#EB4F24;}
	.st19{fill:#FFFFFF;}
	.st20{fill:#FD4940;}
	.st21{fill:#00CCFF;}
	.st22{fill:#FF56A9;}
	.st23{fill:#FFC359;}
	.st24{fill:#FF4DD1;}
	.st25{fill:#F79A74;}
	.st26{fill:#FF4F72;}
	.st27{fill:#FEC800;}
</style>
<g>
	<path class="st0" d="M989-10H718.2c-31.4,26.7-63.6,66-89.5,124.1c-78,174.9-53.7,208.4-155.9,298.5
		C386.2,488.9,304.5,591.9,315.4,700H989c12.7,0,23-10.5,23-23.4V13.4C1012,0.5,1001.7-10,989-10z"/>
	<g>
		<path class="st1" d="M866.5,499.5c19.8-12.4,26-38.8,13.9-59c-2.7-4.5-6.1-8.3-9.9-11.4c5-7.2,10.7-14.2,17.3-20.9
			c3-3.1,6.1-6,9.2-8.8c1.2,1.1,2.5,2.2,3.6,3.3l10.3-6.4c5.3-3.3,12.2-1.6,15.4,3.8l10.2,17.1c3.2,5.4,1.6,12.4-3.7,15.7l-10.3,6.4
			c2.3,8,3.4,16.2,3.3,24.4l11.6,3.3c6,1.7,9.4,8,7.8,14.1l-5.3,19.3c-1.7,6.1-7.8,9.6-13.8,7.9l-11.6-3.3
			c-3.1,5.4-6.8,10.4-11.1,15l6.3,10.5c3.2,5.4,1.6,12.4-3.7,15.7l-16.7,10.4c-5.3,3.3-12.2,1.6-15.4-3.8l-6.3-10.5
			c-6,1.8-12.2,2.9-18.3,3.2c-3.5-12.9-5.1-26.3-4.6-39.9C852.1,505.7,859.6,503.7,866.5,499.5z"/>
		<g>
			<g>
				<path class="st2" d="M848,549.3H466.4c-3.8,0-6.9-3.1-6.9-6.9V268.8c0-3.8,3.1-6.9,6.9-6.9H848c3.8,0,6.9,3.1,6.9,6.9v273.5
					C855,546.2,851.9,549.3,848,549.3z"/>
				<path class="st0" d="M844.3,545.5H470.2c-3,0-5.5-2.5-5.5-5.5V271.1c0-3,2.5-5.5,5.5-5.5h374.1c3,0,5.5,2.5,5.5,5.5V540
					C849.8,543,847.3,545.5,844.3,545.5z"/>
				<path class="st3" d="M829.7,520.8h-345c-1.9,0-3.4-1.5-3.4-3.4V282.2c0-1.9,1.5-3.4,3.4-3.4h345c1.9,0,3.4,1.5,3.4,3.4v235.2
					C833.1,519.3,831.6,520.8,829.7,520.8z"/>
				<path class="st2" d="M449.9,534.4c-1.1,2.1-1.8,4.6-1.8,7.2c0,8.4,6.6,15.2,14.8,15.2h388.7c8.2,0,14.8-6.8,14.8-15.2
					c0-2.6-0.7-5-1.8-7.2H449.9z"/>
			</g>
			<path class="st4" d="M449.9,548.7c2.5,4.7,7.4,8,13,8h388.7c5.6,0,10.5-3.3,13-8H449.9z"/>
		</g>
		<path class="st5" d="M837.3,261.9H573.4v180.4c0,4,3.2,7.2,7.1,7.2H855V280C855,270,847,261.9,837.3,261.9z"/>
		<path class="st6" d="M889.2,441.3H585.8c-1.5,0-2.8-1.2-2.8-2.8V243.7c0-1.5,1.2-2.8,2.8-2.8h303.4c1.5,0,2.8,1.2,2.8,2.8v194.9
			C892,440.1,890.8,441.3,889.2,441.3z"/>
		<path class="st7" d="M901.6,427.8H598.2c-1.5,0-2.8-1.2-2.8-2.8V230.1c0-1.5,1.2-2.8,2.8-2.8h303.4c1.5,0,2.8,1.2,2.8,2.8V425
			C904.4,426.6,903.1,427.8,901.6,427.8z"/>
		<path class="st5" d="M541.1,364.1h-36.7c-1,0-1.7-0.8-1.7-1.7V323c0-1,0.8-1.7,1.7-1.7h36.7c1,0,1.7,0.8,1.7,1.7v39.4
			C542.8,363.4,542,364.1,541.1,364.1z"/>
		<path class="st0" d="M538.8,426.4h-36.7c-1,0-1.7-0.8-1.7-1.7v-39.4c0-1,0.8-1.7,1.7-1.7h36.7c1,0,1.7,0.8,1.7,1.7v39.4
			C540.5,425.7,539.7,426.4,538.8,426.4z"/>
		<path class="st0" d="M538.8,487.4h-36.7c-1,0-1.7-0.8-1.7-1.7v-39.4c0-1,0.8-1.7,1.7-1.7h36.7c1,0,1.7,0.8,1.7,1.7v39.4
			C540.5,486.6,539.7,487.4,538.8,487.4z"/>
		<g>
			<path class="st8" d="M529.2,461.2c0-5.4-4.3-9.8-9.5-9.8c-5.3,0-9.5,4.4-9.5,9.8c0,0-1.3,10.3,9.5,18.6
				C530.5,471.5,529.2,461.2,529.2,461.2z"/>
			<path class="st7" d="M520.2,468.3c-4.3,0.3-7.8-3.3-7.5-7.6c0.3-3.4,3-6.2,6.3-6.5c4.3-0.3,7.8,3.3,7.5,7.6
				C526.3,465.2,523.5,468,520.2,468.3z"/>
		</g>
		<g>
			<g>
				<g>
					<path class="st8" d="M532.7,404.4c0,7.5-5.9,13.5-13.2,13.5s-13.2-6-13.2-13.5c0-7.5,5.9-13.5,13.2-13.5S532.7,397,532.7,404.4
						z"/>
					<path class="st7" d="M530.1,404.4c0,6-4.8,10.9-10.7,10.9c-5.9,0-10.7-4.9-10.7-10.9s4.8-10.9,10.7-10.9
						C525.3,393.5,530.1,398.4,530.1,404.4z"/>
					<path class="st9" d="M519.4,393.5c4.8,0,8.9,3.3,10.2,7.8c0.1,0.2,0.2,0.3,0.4,0.3l0,0c0.3,0,0.5-0.3,0.4-0.6
						c-1.4-4.9-5.8-8.4-11-8.4c-5.2,0-9.6,3.6-11,8.4c-0.1,0.3,0.1,0.6,0.4,0.6l0,0c0.2,0,0.4-0.1,0.4-0.3
						C510.5,396.8,514.6,393.5,519.4,393.5z"/>
					<path class="st10" d="M531.3,404.8c-0.6,0-1.2,0.5-1.3,1.1c-0.7,5.3-5.2,9.4-10.6,9.4c-5.4,0-9.9-4.1-10.6-9.4
						c-0.1-0.6-0.6-1.1-1.3-1.1l0,0c-0.8,0-1.4,0.7-1.3,1.5c0.9,6.6,6.4,11.7,13.1,11.7c6.7,0,12.2-5.1,13.1-11.7
						C532.6,405.5,532,404.8,531.3,404.8L531.3,404.8z"/>
					<path class="st7" d="M530.1,404.4c0,6-4.8,10.9-10.7,10.9c-5.9,0-10.7-4.9-10.7-10.9s4.8-10.9,10.7-10.9
						C525.3,393.5,530.1,398.4,530.1,404.4z"/>
					<path class="st8" d="M529.8,407.9c-0.2,0-0.3,0.1-0.4,0.3c-1.5,4.1-5.4,7.1-10,7.1c-4.6,0-8.5-2.9-10-7.1
						c-0.1-0.2-0.2-0.3-0.4-0.3l0,0c-0.3,0-0.5,0.3-0.4,0.6c1.6,4.5,5.8,7.7,10.8,7.7c4.9,0,9.2-3.2,10.8-7.7
						C530.3,408.2,530.1,407.9,529.8,407.9L529.8,407.9z"/>
				</g>
				<path class="st8" d="M519.4,405.4L519.4,405.4c-0.3,0-0.5-0.2-0.5-0.5v-7.7c0-0.3,0.2-0.5,0.5-0.5l0,0c0.3,0,0.5,0.2,0.5,0.5
					v7.7C519.9,405.2,519.7,405.4,519.4,405.4z"/>
				<path class="st8" d="M519,404.6L519,404.6c0.2-0.2,0.5-0.2,0.7-0.1l4.6,4c0.2,0.2,0.2,0.5,0.1,0.7l0,0c-0.2,0.2-0.5,0.2-0.7,0.1
					l-4.6-4C518.9,405.1,518.9,404.8,519,404.6z"/>
			</g>
			<g>
				<rect x="519.1" y="394.3" class="st11" width="0.4" height="1"/>
				<rect x="519.1" y="413.4" class="st11" width="0.4" height="1"/>
			</g>
			<g>
				
					<rect x="509.8" y="403.8" transform="matrix(6.123234e-17 -1 1 6.123234e-17 105.6676 914.3489)" class="st11" width="0.4" height="1"/>
				
					<rect x="528.5" y="403.8" transform="matrix(6.123234e-17 -1 1 6.123234e-17 124.3284 933.0096)" class="st11" width="0.4" height="1"/>
			</g>
			<g>
				<polygon class="st11" points="513.2,397.8 513,398.1 512.2,397.4 512.5,397.1 				"/>
				<polygon class="st11" points="526.4,411.3 526.2,411.6 525.4,410.9 525.7,410.6 				"/>
			</g>
			<g>
				<polygon class="st11" points="513,410.6 513.2,410.9 512.5,411.6 512.2,411.3 				"/>
				<polygon class="st11" points="526.2,397.1 526.4,397.4 525.7,398.1 525.4,397.8 				"/>
			</g>
		</g>
		<g>
			<path class="st0" d="M538.8,362.8h-36.7c-1,0-1.7-0.8-1.7-1.7v-39.4c0-1,0.8-1.7,1.7-1.7h36.7c1,0,1.7,0.8,1.7,1.7v39.4
				C540.5,362,539.7,362.8,538.8,362.8z"/>
			<g>
				<polyline class="st12" points="498.4,358.4 501.7,356 503.2,350.4 501.5,350.1 500.5,352.1 501.5,342.5 499.9,342.8 
					498.2,352.1 496.2,356.5 498.1,357.7 				"/>
				<polygon class="st12" points="518,368.4 518.4,364.4 523.3,359.4 524.4,361 522.6,363 531.9,360.8 531.9,362.8 523.3,366.2 
					521.5,369.3 				"/>
				<g>
					<g>
						<polygon class="st13" points="457.6,468.9 475.6,559.2 489.3,557.7 480,554.2 483.4,553.2 478.5,468.9 						"/>
						<path class="st13" d="M486.3,467.4c0,0,22.9,22,19.5,48.4c-3.9,21-12.2,28.9-12.2,28.9l-2.4-0.5l3.8,10.2l-11-12
							c0,0,13.5-19.1,5.1-38.9c-8.4-19.8-26.7-26.9-26.7-26.9s15.7-14.6,16.8-14.2C480.4,462.8,486.3,467.4,486.3,467.4z"/>
						<g>
							<path class="st14" d="M496.1,355c0,0-37.7,46.8-42.1,56.1c0,0-1.8,3.4-1.8,13.1c0,9.7,3.3,45.7,3.3,45.7l38.4,2.2
								c0,0-12.4-43.8-12.8-44.9c-0.4-1.1-6.6-7.9-12.4-9.4l32.2-59.5L496.1,355z"/>
							<g>
								<path class="st12" d="M472.2,413.3c0,0,1.6,4.9,2.5,7.8c0,0-7.8-0.2-10.6-3.9l2.9-7.2L472.2,413.3z"/>
								<g>
									<path class="st12" d="M478.2,398.1c0,0,2.3,13.8,0,17c-2.3,3.1-10.3-2.2-13.6-7.2c-3.3-5-4-16.3,1.7-17.3
										C471.9,389.7,476.9,393.1,478.2,398.1z"/>
								</g>
							</g>
							<path class="st14" d="M474.6,423.7c0,0,30.2-19.4,32.7-23.4c2.4-4,9.3-33.6,9.3-33.6l5.8,1.5c0,0-3.4,33.1-4.4,36.6
								c-1,3.5-30.7,35.9-37.5,35.9C473.7,440.7,471.2,431.7,474.6,423.7z"/>
						</g>
					</g>
					<path class="st13" d="M461.9,391.2c0,0,4-5.6,11-4.3s8.8-0.2,8.8-0.2s-1.5,7.9-6.4,9.7c-4.9,1.8-6.2,1.4-6.2,1.4
						s2.6,2.7,3.3,4.7s-2.2-2.5-3.3-0.9c-1.1,1.6,0,5,2.2,4.7c2.2-0.2,0.9,1.6,0,3.4c-0.9,1.8-2.2,4.1-3.5,3.4c-1.3-0.7-6-3.4-7.7-9
						C458.4,398.4,458,393,461.9,391.2z"/>
				</g>
			</g>
		</g>
		<path class="st2" d="M705.8,408.2h-90.1c-0.7,0-1.3-0.6-1.3-1.3V249.7c0-0.7,0.6-1.3,1.3-1.3h90.1c0.7,0,1.3,0.6,1.3,1.3v157.2
			C707.1,407.6,706.5,408.2,705.8,408.2z"/>
		<path class="st0" d="M689.3,274.8h-57.9c-0.6,0-1-0.5-1-1v-11.5c0-0.6,0.5-1,1-1h57.9c0.6,0,1,0.5,1,1v11.5
			C690.3,274.3,689.9,274.8,689.3,274.8z"/>
		<path class="st0" d="M650.4,350h-11.9c-2.8,0-5.1-2.3-5.1-5.2l0,0c0-2.9,2.3-5.2,5.1-5.2h11.9c2.8,0,5.1,2.3,5.1,5.2l0,0
			C655.5,347.7,653.2,350,650.4,350z"/>
		<path class="st8" d="M684.8,350h-11.9c-2.8,0-5.1-2.3-5.1-5.2l0,0c0-2.9,2.3-5.2,5.1-5.2h11.9c2.8,0,5.1,2.3,5.1,5.2l0,0
			C689.9,347.7,687.6,350,684.8,350z"/>
		<rect x="629" y="288.3" class="st7" width="64.4" height="10.4"/>
		<rect x="629" y="305.9" class="st7" width="64.4" height="10.4"/>
		<rect x="642.9" y="322.8" class="st15" width="37.1" height="2.4"/>
		<path class="st8" d="M898.1,378.6H782.2c-7.1,0-12.9-5.9-12.9-13.2l0,0c0-7.3,5.8-13.2,12.9-13.2h115.9c7.1,0,12.9,5.9,12.9,13.2
			l0,0C911,372.7,905.2,378.6,898.1,378.6z"/>
		<g>
			<path class="st2" d="M797.8,266.7h-72.2c-5.8,0-10.6-4.9-10.6-10.8l0,0c0-6,4.7-10.8,10.6-10.8h72.2c5.9,0,10.6,4.9,10.6,10.8
				l0,0C808.4,261.8,803.6,266.7,797.8,266.7z"/>
			<path class="st16" d="M742.8,255.8c0,1.9-1.5,3.4-3.3,3.4c-1.8,0-3.3-1.5-3.3-3.4s1.5-3.4,3.3-3.4
				C741.4,252.4,742.8,253.9,742.8,255.8z"/>
			<path class="st17" d="M765.6,255.8c0,1.9-1.5,3.4-3.3,3.4c-1.8,0-3.3-1.5-3.3-3.4s1.5-3.4,3.3-3.4
				C764.1,252.4,765.6,253.9,765.6,255.8z"/>
			<path class="st18" d="M786.5,255.8c0,1.9-1.5,3.4-3.3,3.4c-1.8,0-3.3-1.5-3.3-3.4s1.5-3.4,3.3-3.4
				C785.1,252.4,786.5,253.9,786.5,255.8z"/>
		</g>
		<g>
			<ellipse class="st19" cx="519.9" cy="344" rx="8.1" ry="8.2"/>
			<g>
				<path class="st8" d="M528.3,334h-1.4l-2-2.9c-0.2-0.2-0.4-0.4-0.7-0.4H516c-0.3,0-0.5,0.1-0.7,0.4l-2,2.9h-1.4
					c-2.2,0-4,1.8-4,4.1v12c0,2.3,1.8,4.1,4,4.1h16.5c2.2,0,4-1.8,4-4.1v-12C532.3,335.9,530.5,334,528.3,334z M520.1,350.1
					c-3.3,0-5.9-2.7-5.9-6.1c0-3.3,2.7-6.1,5.9-6.1c3.3,0,5.9,2.7,5.9,6.1C526,347.4,523.3,350.1,520.1,350.1z"/>
				<ellipse class="st0" cx="520.1" cy="344" rx="3.9" ry="4"/>
			</g>
		</g>
		<g>
			<path class="st2" d="M811.4,336.5h-66.9c-1.1,0-2-0.9-2-2v-43.6c0-1.1,0.9-2,2-2h66.9c1.1,0,2,0.9,2,2v43.6
				C813.5,335.6,812.6,336.5,811.4,336.5z"/>
			<path class="st20" d="M778,312.3h-0.1c-0.3,0-0.6-0.1-0.9-0.2l-27.4-15.6c-0.9-0.5-1.2-1.7-0.7-2.6c0.5-0.9,1.6-1.3,2.5-0.7
				l26.5,15.1l26.5-15.1c0.9-0.5,2-0.2,2.5,0.7c0.5,0.9,0.2,2.1-0.7,2.6L779,312.1C778.7,312.2,778.4,312.3,778,312.3z"/>
		</g>
		<path class="st13" d="M915.8,331.6h-84.4c-1,0-1.8-0.8-1.8-1.8V217c0-1,0.8-1.8,1.8-1.8h84.4c1,0,1.8,0.8,1.8,1.8v112.8
			C917.6,330.8,916.8,331.6,915.8,331.6z"/>
		<g>
			<path class="st21" d="M849.2,230.8h-5.9c-0.3,0-0.6-0.5-0.6-1.2l0,0c0-0.6,0.3-1.2,0.6-1.2h5.9c0.3,0,0.6,0.5,0.6,1.2l0,0
				C849.8,230.3,849.5,230.8,849.2,230.8z"/>
			<path class="st21" d="M885.6,230.8H852c-0.3,0-0.6-0.5-0.6-1.2l0,0c0-0.6,0.3-1.2,0.6-1.2h33.6c0.3,0,0.6,0.5,0.6,1.2l0,0
				C886.1,230.3,885.9,230.8,885.6,230.8z"/>
			<path class="st22" d="M862.7,235.6H852c-0.3,0-0.6-0.5-0.6-1.2l0,0c0-0.6,0.3-1.2,0.6-1.2h10.7c0.3,0,0.6,0.5,0.6,1.2l0,0
				C863.3,235.1,863,235.6,862.7,235.6z"/>
			<path class="st2" d="M880.3,235.6h-15.4c-0.3,0-0.6-0.5-0.6-1.2l0,0c0-0.6,0.3-1.2,0.6-1.2h15.4c0.3,0,0.6,0.5,0.6,1.2l0,0
				C880.9,235.1,880.6,235.6,880.3,235.6z"/>
			<path class="st2" d="M885.6,258.9H852c-0.3,0-0.6-0.5-0.6-1.2l0,0c0-0.6,0.3-1.2,0.6-1.2h33.6c0.3,0,0.6,0.5,0.6,1.2l0,0
				C886.1,258.4,885.9,258.9,885.6,258.9z"/>
			<path class="st21" d="M849.2,263.7h-5.9c-0.3,0-0.6-0.5-0.6-1.2l0,0c0-0.6,0.3-1.2,0.6-1.2h5.9c0.3,0,0.6,0.5,0.6,1.2l0,0
				C849.8,263.2,849.5,263.7,849.2,263.7z"/>
			<path class="st2" d="M862.7,263.7H852c-0.3,0-0.6-0.5-0.6-1.2l0,0c0-0.6,0.3-1.2,0.6-1.2h10.7c0.3,0,0.6,0.5,0.6,1.2l0,0
				C863.3,263.2,863,263.7,862.7,263.7z"/>
			<path class="st22" d="M880.3,263.7h-15.4c-0.3,0-0.6-0.5-0.6-1.2l0,0c0-0.6,0.3-1.2,0.6-1.2h15.4c0.3,0,0.6,0.5,0.6,1.2l0,0
				C880.9,263.2,880.6,263.7,880.3,263.7z"/>
			<path class="st22" d="M893.9,240.4H852c-0.3,0-0.6-0.5-0.6-1.2l0,0c0-0.6,0.3-1.2,0.6-1.2h41.9c0.3,0,0.6,0.5,0.6,1.2l0,0
				C894.4,239.9,894.2,240.4,893.9,240.4z"/>
			<path class="st21" d="M885.5,245.2H875c-0.1,0-0.2-0.1-0.2-0.2v-1.9c0-0.1,0.1-0.2,0.2-0.2h10.5c0.1,0,0.2,0.1,0.2,0.2v1.9
				C885.7,245.1,885.6,245.2,885.5,245.2z"/>
			<path class="st2" d="M865.9,245.2H852c-0.3,0-0.6-0.5-0.6-1.2l0,0c0-0.6,0.3-1.2,0.6-1.2h13.9c0.3,0,0.6,0.5,0.6,1.2l0,0
				C866.5,244.7,866.2,245.2,865.9,245.2z"/>
			<path class="st21" d="M873.3,245.2h-5.5c-0.3,0-0.6-0.5-0.6-1.2l0,0c0-0.6,0.3-1.2,0.6-1.2h5.5c0.3,0,0.6,0.5,0.6,1.2l0,0
				C873.9,244.7,873.6,245.2,873.3,245.2z"/>
			<path class="st2" d="M849.2,249.8h-5.9c-0.3,0-0.6-0.5-0.6-1.2l0,0c0-0.6,0.3-1.2,0.6-1.2h5.9c0.3,0,0.6,0.5,0.6,1.2l0,0
				C849.8,249.3,849.5,249.8,849.2,249.8z"/>
			<path class="st2" d="M893.9,249.8H852c-0.3,0-0.6-0.5-0.6-1.2l0,0c0-0.6,0.3-1.2,0.6-1.2h41.9c0.3,0,0.6,0.5,0.6,1.2l0,0
				C894.4,249.3,894.2,249.8,893.9,249.8z"/>
			<path class="st2" d="M849.2,268.2h-5.9c-0.3,0-0.6-0.5-0.6-1.2l0,0c0-0.6,0.3-1.2,0.6-1.2h5.9c0.3,0,0.6,0.5,0.6,1.2l0,0
				C849.8,267.7,849.5,268.2,849.2,268.2z"/>
			<path class="st2" d="M889.6,268.2H875c-0.2,0-0.3-0.1-0.3-0.3v-1.8c0-0.2,0.1-0.3,0.3-0.3h14.6c0.2,0,0.3,0.1,0.3,0.3v1.8
				C889.9,268.1,889.8,268.2,889.6,268.2z"/>
			<path class="st2" d="M865.9,268.2H852c-0.3,0-0.6-0.5-0.6-1.2l0,0c0-0.6,0.3-1.2,0.6-1.2h13.9c0.3,0,0.6,0.5,0.6,1.2l0,0
				C866.5,267.7,866.2,268.2,865.9,268.2z"/>
			<path class="st2" d="M873.3,268.2h-5.5c-0.3,0-0.6-0.5-0.6-1.2l0,0c0-0.6,0.3-1.2,0.6-1.2h5.5c0.3,0,0.6,0.5,0.6,1.2l0,0
				C873.9,267.7,873.6,268.2,873.3,268.2z"/>
			<path class="st23" d="M849.2,272.8h-5.9c-0.3,0-0.6-0.5-0.6-1.2l0,0c0-0.6,0.3-1.2,0.6-1.2h5.9c0.3,0,0.6,0.5,0.6,1.2l0,0
				C849.8,272.3,849.5,272.8,849.2,272.8z"/>
			<path class="st21" d="M859.2,272.8H852c-0.3,0-0.6-0.5-0.6-1.2l0,0c0-0.6,0.3-1.2,0.6-1.2h7.3c0.3,0,0.6,0.5,0.6,1.2l0,0
				C859.8,272.3,859.6,272.8,859.2,272.8z"/>
			<path class="st21" d="M843.4,254.6c-0.3,0-0.6-0.5-0.6-1.2l0,0c0-0.6,0.3-1.2,0.6-1.2h5.9c0.3,0,0.6,0.5,0.6,1.2l0,0
				c0,0.6-0.3,1.2-0.6,1.2"/>
			<path class="st2" d="M891.6,254.6H875c-0.2,0-0.3-0.1-0.3-0.3v-1.7c0-0.2,0.1-0.3,0.3-0.3h16.5c0.2,0,0.3,0.1,0.3,0.3v1.7
				C891.9,254.5,891.7,254.6,891.6,254.6z"/>
			<path class="st23" d="M865.9,254.6H852c-0.3,0-0.6-0.5-0.6-1.2l0,0c0-0.6,0.3-1.2,0.6-1.2h13.9c0.3,0,0.6,0.5,0.6,1.2l0,0
				C866.5,254.1,866.2,254.6,865.9,254.6z"/>
			<path class="st23" d="M873.3,254.6h-5.5c-0.3,0-0.6-0.5-0.6-1.2l0,0c0-0.6,0.3-1.2,0.6-1.2h5.5c0.3,0,0.6,0.5,0.6,1.2l0,0
				C873.9,254.1,873.6,254.6,873.3,254.6z"/>
			<path class="st2" d="M885.6,277.7H852c-0.3,0-0.6-0.5-0.6-1.2l0,0c0-0.6,0.3-1.2,0.6-1.2h33.6c0.3,0,0.6,0.5,0.6,1.2l0,0
				C886.1,277.2,885.9,277.7,885.6,277.7z"/>
			<path class="st2" d="M862.7,282.5H852c-0.3,0-0.6-0.5-0.6-1.2l0,0c0-0.6,0.3-1.2,0.6-1.2h10.7c0.3,0,0.6,0.5,0.6,1.2l0,0
				C863.3,282,863,282.5,862.7,282.5z"/>
			<path class="st2" d="M880.3,282.5h-15.4c-0.3,0-0.6-0.5-0.6-1.2l0,0c0-0.6,0.3-1.2,0.6-1.2h15.4c0.3,0,0.6,0.5,0.6,1.2l0,0
				C880.9,282,880.6,282.5,880.3,282.5z"/>
			<path class="st2" d="M885.6,305.9H852c-0.3,0-0.6-0.5-0.6-1.2l0,0c0-0.6,0.3-1.2,0.6-1.2h33.6c0.3,0,0.6,0.5,0.6,1.2l0,0
				C886.1,305.4,885.9,305.9,885.6,305.9z"/>
			<path class="st22" d="M849.2,310.7h-5.9c-0.3,0-0.6-0.5-0.6-1.2l0,0c0-0.6,0.3-1.2,0.6-1.2h5.9c0.3,0,0.6,0.5,0.6,1.2l0,0
				C849.8,310.2,849.5,310.7,849.2,310.7z"/>
			<path class="st21" d="M862.7,310.7H852c-0.3,0-0.6-0.5-0.6-1.2l0,0c0-0.6,0.3-1.2,0.6-1.2h10.7c0.3,0,0.6,0.5,0.6,1.2l0,0
				C863.3,310.2,863,310.7,862.7,310.7z"/>
			<path class="st2" d="M880.3,310.7h-15.4c-0.3,0-0.6-0.5-0.6-1.2l0,0c0-0.6,0.3-1.2,0.6-1.2h15.4c0.3,0,0.6,0.5,0.6,1.2l0,0
				C880.9,310.2,880.6,310.7,880.3,310.7z"/>
			<path class="st22" d="M849.2,287.3h-5.9c-0.3,0-0.6-0.5-0.6-1.2l0,0c0-0.6,0.3-1.2,0.6-1.2h5.9c0.3,0,0.6,0.5,0.6,1.2l0,0
				C849.8,286.8,849.5,287.3,849.2,287.3z"/>
			<path class="st22" d="M882.4,287.3h-30.7c-0.1,0-0.3-0.1-0.3-0.3v-1.8c0-0.1,0.1-0.3,0.3-0.3h30.7c0.1,0,0.3,0.1,0.3,0.3v1.8
				C882.6,287.2,882.5,287.3,882.4,287.3z"/>
			<path class="st2" d="M849.2,292.1h-5.9c-0.3,0-0.6-0.5-0.6-1.2l0,0c0-0.6,0.3-1.2,0.6-1.2h5.9c0.3,0,0.6,0.5,0.6,1.2l0,0
				C849.8,291.6,849.5,292.1,849.2,292.1z"/>
			<path class="st2" d="M865.9,292.1H852c-0.3,0-0.6-0.5-0.6-1.2l0,0c0-0.6,0.3-1.2,0.6-1.2h13.9c0.3,0,0.6,0.5,0.6,1.2l0,0
				C866.5,291.6,866.2,292.1,865.9,292.1z"/>
			<path class="st2" d="M873.3,292.1h-5.5c-0.3,0-0.6-0.5-0.6-1.2l0,0c0-0.6,0.3-1.2,0.6-1.2h5.5c0.3,0,0.6,0.5,0.6,1.2l0,0
				C873.9,291.6,873.6,292.1,873.3,292.1z"/>
			<path class="st2" d="M849.2,296.8h-5.9c-0.3,0-0.6-0.5-0.6-1.2l0,0c0-0.6,0.3-1.2,0.6-1.2h5.9c0.3,0,0.6,0.5,0.6,1.2l0,0
				C849.8,296.2,849.5,296.8,849.2,296.8z"/>
			<path class="st2" d="M890.4,296.8h-38.7c-0.2,0-0.3-0.1-0.3-0.3v-1.7c0-0.2,0.1-0.3,0.3-0.3h38.7c0.2,0,0.3,0.1,0.3,0.3v1.7
				C890.7,296.6,890.6,296.8,890.4,296.8z"/>
			<path class="st2" d="M849.2,315.1h-5.9c-0.3,0-0.6-0.5-0.6-1.2l0,0c0-0.6,0.3-1.2,0.6-1.2h5.9c0.3,0,0.6,0.5,0.6,1.2l0,0
				C849.8,314.6,849.5,315.1,849.2,315.1z"/>
			<path class="st2" d="M893.8,315.1h-18.5c-0.3,0-0.6-0.5-0.6-1.2l0,0c0-0.6,0.3-1.2,0.6-1.2h18.5c0.3,0,0.6,0.5,0.6,1.2l0,0
				C894.4,314.6,894.1,315.1,893.8,315.1z"/>
			<path class="st2" d="M865.9,315.1H852c-0.3,0-0.6-0.5-0.6-1.2l0,0c0-0.6,0.3-1.2,0.6-1.2h13.9c0.3,0,0.6,0.5,0.6,1.2l0,0
				C866.5,314.6,866.2,315.1,865.9,315.1z"/>
			<path class="st2" d="M873.3,315.1h-5.5c-0.3,0-0.6-0.5-0.6-1.2l0,0c0-0.6,0.3-1.2,0.6-1.2h5.5c0.3,0,0.6,0.5,0.6,1.2l0,0
				C873.9,314.6,873.6,315.1,873.3,315.1z"/>
			<path class="st23" d="M877.1,319.8h-25.5c-0.1,0-0.2-0.1-0.2-0.2v-1.8c0-0.1,0.1-0.2,0.2-0.2h25.5c0.1,0,0.2,0.1,0.2,0.2v1.8
				C877.4,319.6,877.3,319.8,877.1,319.8z"/>
			<path class="st22" d="M892.6,301.6h-17.5c-0.2,0-0.3-0.1-0.3-0.3v-1.7c0-0.2,0.1-0.3,0.3-0.3h17.5c0.2,0,0.3,0.1,0.3,0.3v1.7
				C892.9,301.4,892.7,301.6,892.6,301.6z"/>
			<path class="st23" d="M865.9,301.6H852c-0.3,0-0.6-0.5-0.6-1.2l0,0c0-0.6,0.3-1.2,0.6-1.2h13.9c0.3,0,0.6,0.5,0.6,1.2l0,0
				C866.5,301,866.2,301.6,865.9,301.6z"/>
			<path class="st23" d="M873.3,301.6h-5.5c-0.3,0-0.6-0.5-0.6-1.2l0,0c0-0.6,0.3-1.2,0.6-1.2h5.5c0.3,0,0.6,0.5,0.6,1.2l0,0
				C873.9,301,873.6,301.6,873.3,301.6z"/>
		</g>
		<g>
			<ellipse class="st24" cx="910.5" cy="217.6" rx="18.5" ry="19"/>
			<g>
				<g>
					<path class="st7" d="M909.2,215.8l-7.4,2.8l7.4,2.7v2.8l-10.5-4.1v-2.9l10.5-4.1V215.8z"/>
				</g>
				<g>
					<path class="st7" d="M911.6,213l10.5,4.1v2.9l-10.5,4.1v-2.8l7.4-2.7l-7.4-2.8V213z"/>
				</g>
			</g>
		</g>
		<g>
			<ellipse class="st16" cx="787.9" cy="537.3" rx="20.1" ry="20.6"/>
			<g>
				<path class="st19" d="M798.5,536.1c0,1.3-0.2,2.4-0.6,3.5c-0.4,1.1-1,1.9-1.7,2.5c-0.7,0.6-1.6,0.9-2.5,0.9
					c-0.6,0-1.2-0.2-1.7-0.5c-0.5-0.3-0.8-0.7-1.1-1.2h-0.2c-0.9,1.1-2.1,1.7-3.6,1.7c-1.5,0-2.7-0.5-3.6-1.4
					c-0.9-0.9-1.3-2.2-1.3-3.9c0-1.9,0.6-3.4,1.7-4.5c1.2-1.1,2.7-1.7,4.6-1.7c0.7,0,1.6,0.1,2.5,0.2c0.9,0.1,1.6,0.3,2.2,0.5
					l-0.3,6.5c0,1.2,0.3,1.8,1,1.8c0.6,0,1-0.4,1.3-1.2c0.3-0.8,0.5-1.9,0.5-3.3c0-1.4-0.3-2.7-0.9-3.8c-0.6-1.1-1.4-1.9-2.5-2.5
					c-1.1-0.6-2.3-0.9-3.6-0.9c-1.8,0-3.3,0.4-4.6,1.1c-1.3,0.7-2.3,1.8-3,3.2c-0.7,1.4-1,3-1,4.8c0,2.4,0.6,4.3,1.9,5.6
					c1.3,1.3,3.1,2,5.6,2c0.9,0,1.9-0.1,3-0.3c1.1-0.2,2.2-0.5,3.3-0.9v2.6c-1.9,0.8-3.9,1.2-6.2,1.2c-3.3,0-5.9-0.9-7.7-2.7
					c-1.8-1.8-2.8-4.2-2.8-7.4c0-2.2,0.5-4.2,1.4-6c0.9-1.8,2.3-3.2,4-4.2c1.7-1,3.7-1.5,6-1.5c1.9,0,3.6,0.4,5.1,1.2
					c1.5,0.8,2.7,1.9,3.5,3.4C798.1,532.5,798.5,534.2,798.5,536.1z M785.2,537.7c0,1.9,0.7,2.8,2.2,2.8c0.8,0,1.4-0.3,1.8-0.8
					c0.4-0.6,0.7-1.5,0.7-2.7l0.2-2.9c-0.4-0.1-0.9-0.1-1.5-0.1c-1.1,0-1.9,0.3-2.5,1C785.5,535.6,785.2,536.5,785.2,537.7z"/>
			</g>
		</g>
		<g>
			<path class="st8" d="M686.9,181.5H560.7c-10.2,0-18.6,8.5-18.6,19c0,10.5,8.3,19,18.6,19h9.3l9,9.2l9-9.2h98.9
				c10.2,0,18.6-8.5,18.6-19C705.4,190,697.1,181.5,686.9,181.5z"/>
			<path class="st19" d="M650.8,206.5h-83c-1.1,0-2.1-0.9-2.1-2.1l0,0c0-1.2,0.9-2.1,2.1-2.1h83c1.1,0,2.1,0.9,2.1,2.1l0,0
				C652.8,205.6,651.9,206.5,650.8,206.5z"/>
			<path class="st19" d="M624.8,194.8h-57.1c-1.1,0-2.1-0.9-2.1-2.1l0,0c0-1.2,0.9-2.1,2.1-2.1h57.1c1.1,0,2.1,1,2.1,2.1l0,0
				C626.9,193.9,626,194.8,624.8,194.8z"/>
		</g>
		<g>
			<path class="st12" d="M859.3,421.9c0,0-1.5,4.7-2.4,7.5c0,0,7.6-0.2,10.2-3.8l-2.8-6.9L859.3,421.9z"/>
			<g>
				<polygon class="st25" points="858.1,551.1 858.8,554 863,554.2 862.1,550.6 				"/>
				<path class="st13" d="M858.8,554c0,0-7,3.7-6.9,4c0.1,0.2,11.8-1,11.8-1l-0.7-2.7L858.8,554z"/>
			</g>
			<g>
				<polygon class="st25" points="893.4,545.1 895.1,547.6 899,546.3 896.9,543.3 				"/>
				<path class="st13" d="M895.1,547.6c0,0-5.2,6.1-5.1,6.3c0.1,0.2,10.7-5.3,10.7-5.3l-1.6-2.3L895.1,547.6z"/>
			</g>
			<path class="st16" d="M850.4,473.2c0,0-12,40.1,7.1,78.7h5.6c0,0-11.3-43.7,2.8-79L850.4,473.2z"/>
			<path class="st16" d="M860.8,474.6c0,0,1.9,41.9,32.5,71.7l5.3-1.9c0,0-25-37.2-23.3-75.4L860.8,474.6z"/>
			<g>
				<path class="st25" d="M855.3,380.3l0-2.5c0-0.1,0-0.2,0-0.3l-0.5-1.8l-1.4,0.4l-1.4-1.3c-0.6-0.6-1.5-0.4-1.9,0.4
					c-0.4,0.9-0.9,2.2-1.1,3.1c-0.1,0.4,0.1,0.7,0.3,1l2.1,2.4c0.3,0.3,0.8,0.5,1.2,0.3l1.7-0.5
					C854.9,381.3,855.3,380.8,855.3,380.3z"/>
				<path class="st26" d="M876,434.5c0,0-15.6-17.2-16.7-23.6c-1-6.4-3.3-30.3-3.3-30.3l-4.8,1c0,0-1.7,34.2-0.2,38.1
					c1.5,3.9,10.9,24,17,25.8C874.1,447.3,878.4,441.1,876,434.5z"/>
				<path class="st25" d="M854.3,406.2c0,0-3.5,12-1.3,15c2.2,3,10.5,0.3,13.7-4.6c3.2-4.8,3.8-15.7-1.6-16.7
					C859.6,399.1,855.5,401.3,854.3,406.2z"/>
				<path class="st26" d="M875.4,476.4c0,0,3.2-34.6,3.2-44c0-0.4,0-0.8,0-1.2c-2.4-6.1-8.2-6-10.6-5.5c-2.4,0.5-11.5,3.5-11.5,3.8
					l0,0c-3.2,2.3-5.6,5.1-5.8,5.8c0,0-8.5,18-1.1,39.7L875.4,476.4z"/>
				<path class="st25" d="M830.6,382.1l-0.4-2.4c0-0.1,0-0.2-0.1-0.3l-0.8-1.7l-1.3,0.6l-1.6-1.1c-0.7-0.4-1.6-0.1-1.8,0.7
					c-0.3,1-0.5,2.3-0.5,3.2c0,0.4,0.2,0.7,0.5,0.9l2.5,2c0.4,0.3,0.9,0.3,1.3,0.1l1.6-0.8C830.4,383.1,830.7,382.6,830.6,382.1z"/>
				<path class="st26" d="M860.3,431.7c0,0-18.3-14.1-20.5-20.2c-2.1-6.1-8.5-29.2-8.5-29.2l-4.6,1.8c0,0,4.2,33.9,6.4,37.5
					c2.1,3.6,14.8,21.7,21.2,22.4C860.6,444.7,863.8,437.8,860.3,431.7z"/>
				<path class="st13" d="M867.3,399.9c0,0-9.4-4.1-13.9,4.3c-2.4,5.3,5.2,0.2,6.6,1.9c1.4,1.7-1.9,5.1-0.9,6.3
					c0.9,1.2,2.6-2.2,3.5-0.2c0.9,1.9-1.4,2.2-3.1,4.3c-1.6,2.2,1.4,5.3-0.9,7.2c-2.4,1.9-8.9,3.4-4.9,13.7c4,10.3-6.6,13-2.1,27.2
					c4.5,14.2,34.8,22.1,40.5,5.3c5.6-16.8-13.2-20.9-12-28.4c1.2-7.5,5.4-9.4-0.2-16.8c-5.6-7.5-9.2-11.8-7.5-16.6
					C873.9,403.3,869.4,399.9,867.3,399.9z"/>
			</g>
		</g>
		<path class="st27" d="M893,341.7c-11.2,0-20.2,9.3-20.2,20.7c0,11.4,9.1,20.7,20.2,20.7c11.2,0,20.2-9.3,20.2-20.7
			C913.2,351,904.1,341.7,893,341.7z M882.7,360.8c0-1.4,1.1-2.5,2.5-2.5c1.4,0,2.5,1.1,2.5,2.5s-1.1,2.5-2.5,2.5
			C883.8,363.3,882.7,362.2,882.7,360.8z M893,373.7c-3.3,0-5.9-2.5-6.4-5.7h12.7C898.9,371.2,896.2,373.7,893,373.7z M900.7,363.3
			c-1.4,0-2.5-1.1-2.5-2.5s1.1-2.5,2.5-2.5c1.4,0,2.5,1.1,2.5,2.5S902.1,363.3,900.7,363.3z"/>
		<polygon class="st7" points="592.5,509.6 591.3,507.1 623.4,490.7 663.8,491.4 707.8,474.5 741.3,474.5 777.1,462.3 777.4,462.3 
			806.1,465.7 822.3,457.1 823.6,459.5 806.6,468.4 806.2,468.4 777.4,465 741.5,477.2 708,477.2 664.3,494.1 664,494.1 624,493.5 
					"/>
		<g>
			<path class="st13" d="M710.2,444.6c0,0,31.8,52.6,27.8,89.3l21.6,0.5l-9.3-5.5l2.6-0.5c0,0-7.9-56.8-15.4-76.9
				c-7.9-21.1-10.2-13.3-10.2-13.3L710.2,444.6z"/>
			<path class="st13" d="M698.7,441.3c0,0,1.8,36.6-0.9,50.6c-2.6,14-10.6,41.5-10.6,41.5l20.3,0.5l-5.3-3.8l-3.4-2
				c0,0,14.5-39.7,15.8-58.7s3.5-29.8,3.5-29.8L698.7,441.3z"/>
			<g>
				<polyline class="st12" points="740.2,333.1 743.6,330.7 745,325.2 743.4,324.8 742.4,326.9 743.4,317.2 741.7,317.5 
					740.1,326.9 738.1,331.3 739.9,332.4 				"/>
				<polygon class="st12" points="759.8,343.2 760.3,339.1 765.1,334.1 766.2,335.7 764.5,337.7 773.7,335.5 773.7,337.5 
					765.1,340.9 763.4,344.1 				"/>
				<g>
					<g>
						<g>
							<path class="st0" d="M738,329.7c0,0-37.7,46.8-42.1,56.1c0,0-1.8,3.4-1.8,13.1c0,9.7,3.3,45.7,3.3,45.7l38.4,2.2
								c0,0-12.4-43.8-12.8-44.9c-0.4-1.1-6.6-7.9-12.4-9.4l32.2-59.5L738,329.7z"/>
							<g>
								<path class="st12" d="M714.1,388c0,0,1.6,4.9,2.5,7.8c0,0-7.8-0.2-10.6-3.9l2.9-7.2L714.1,388z"/>
								<g>
									<path class="st12" d="M720,372.9c0,0,2.3,13.8,0,17c-2.3,3.1-10.3-2.2-13.6-7.2c-3.3-5-4-16.3,1.7-17.3
										C713.8,364.4,718.7,367.8,720,372.9z"/>
								</g>
							</g>
							<path class="st0" d="M716.5,398.4c0,0,30.2-19.4,32.7-23.4c2.4-4,9.3-33.6,9.3-33.6l5.8,1.5c0,0-3.4,33.1-4.4,36.6
								c-1,3.5-30.7,35.9-37.5,35.9C715.5,415.4,713.1,406.4,716.5,398.4z"/>
						</g>
					</g>
				</g>
			</g>
			<path class="st13" d="M717.9,369.8c0,0,1.5-5.4-1.8-8.1c-3.3-2.7-9-2.3-9.9-1.4c0,1.6,3.5,2.5,2.6,3.4c-0.9,0.9-5.5,0-6.6,4.7
				c-1.1,4.7,0.4,5.6,0.4,5.6s-2.4,2.9,0.4,7c2.9,4.1,9.4,7.4,11,7c1.6-0.4,0.7-6.8,0.7-6.8s-3.8-0.5-4-2.9
				c-0.2-2.5,1.8-2.7,2.6-1.8c0.9,0.9,1.1,2.9,1.8,2.5c0.7-0.5-0.2-5.2-0.2-5.2S717.5,371.8,717.9,369.8z"/>
		</g>
		<g>
			<path class="st8" d="M735.7,508.1l-22.7,6.4c-6.2,1.8-9.9,8.4-8.2,14.8l4.3,16c1.7,6.4,8.2,10.2,14.5,8.4l6.8-1.9l6.7,6.8
				l2.4-9.3l6.8-1.9c6.2-1.8,9.9-8.4,8.2-14.8l-4.3-16C748.4,510.1,741.9,506.3,735.7,508.1z"/>
			<g>
				<path class="st19" d="M720.7,534.3c0.4,1.4-0.4,2.9-1.8,3.3c-1.4,0.4-2.8-0.4-3.2-1.9c-0.4-1.4,0.4-2.9,1.8-3.3
					C718.9,532,720.3,532.9,720.7,534.3z"/>
				<path class="st19" d="M732.1,531.1c0.4,1.4-0.4,2.9-1.8,3.3c-1.4,0.4-2.8-0.4-3.2-1.9c-0.4-1.4,0.4-2.9,1.8-3.3
					S731.7,529.7,732.1,531.1z"/>
				<path class="st19" d="M743.5,527.9c0.4,1.4-0.4,2.9-1.8,3.3c-1.4,0.4-2.8-0.4-3.2-1.9c-0.4-1.4,0.4-2.9,1.8-3.3
					C741.7,525.6,743.2,526.5,743.5,527.9z"/>
			</g>
		</g>
		<ellipse class="st16" cx="623.5" cy="491.4" rx="4.2" ry="4.3"/>
		<ellipse class="st26" cx="777.5" cy="463.9" rx="4.2" ry="4.3"/>
	</g>
</g>
</svg>
