<?xml version="1.0" encoding="utf-8"?>
<!-- Generator: Adobe Illustrator 22.1.0, SVG Export Plug-In . SVG Version: 6.00 Build 0)  -->
<svg version="1.1" id="Layer_1" xmlns="http://www.w3.org/2000/svg" xmlns:xlink="http://www.w3.org/1999/xlink" x="0px" y="0px"
	 viewBox="0 0 1000 520" style="enable-background:new 0 0 1000 520;" xml:space="preserve">
<style type="text/css">
	.st0{fill:#6DB8FF;}
	.st1{fill:#489AFF;}
	.st2{fill:#E3EAFF;}
	.st3{fill:#2F6DFF;}
	.st4{fill:#C8D6F2;}
	.st5{opacity:0.2;fill:#424261;}
	.st6{opacity:0.21;fill:#E3EAFF;}
	.st7{fill:#F9FBFC;}
	.st8{fill:#9570EE;}
	.st9{fill:#BB87EE;}
	.st10{fill:#7F57EE;}
	.st11{fill:#CED6FF;}
	.st12{fill:#F7D3A9;}
	.st13{fill:#544DB8;}
	.st14{fill:#FF8B40;}
	.st15{fill:#CDD4FF;}
	.st16{fill:#FFC240;}
	.st17{fill:#90C240;}
	.st18{fill:#EB4F24;}
	.st19{fill:#FFFFFF;}
	.st20{fill:#FD4940;}
	.st21{fill:#00CCFF;}
	.st22{fill:#FF56A9;}
	.st23{fill:#FFC359;}
	.st24{fill:#FF4DD1;}
	.st25{fill:#F79A74;}
	.st26{fill:#FF4F72;}
	.st27{fill:#FEC800;}
</style>
<g>
	<path class="st0" d="M990-95H719.2c-31.4,26.7-63.6,66-89.5,124.1c-78,174.9-53.7,208.4-155.9,298.5
		C387.2,403.9,305.5,506.9,316.4,615H990c12.7,0,23-10.5,23-23.4V-71.6C1013-84.5,1002.7-95,990-95z"/>
	<g>
		<path class="st1" d="M867.5,414.5c19.8-12.4,26-38.8,13.9-59c-2.7-4.5-6.1-8.3-9.9-11.4c5-7.2,10.7-14.2,17.3-20.9
			c3-3.1,6.1-6,9.2-8.8c1.2,1.1,2.5,2.2,3.6,3.3l10.3-6.4c5.3-3.3,12.2-1.6,15.4,3.8l10.2,17.1c3.2,5.4,1.6,12.4-3.7,15.7l-10.3,6.4
			c2.3,8,3.4,16.2,3.3,24.4l11.6,3.3c6,1.7,9.4,8,7.8,14.1l-5.3,19.3c-1.7,6.1-7.8,9.6-13.8,7.9l-11.6-3.3
			c-3.1,5.4-6.8,10.4-11.1,15l6.3,10.5c3.2,5.4,1.6,12.4-3.7,15.7l-16.7,10.4c-5.3,3.3-12.2,1.6-15.4-3.8l-6.3-10.5
			c-6,1.8-12.2,2.9-18.3,3.2c-3.5-12.9-5.1-26.3-4.6-39.9C853.1,420.7,860.6,418.7,867.5,414.5z"/>
		<g>
			<g>
				<path class="st2" d="M849,464.3H467.4c-3.8,0-6.9-3.1-6.9-6.9V183.8c0-3.8,3.1-6.9,6.9-6.9H849c3.8,0,6.9,3.1,6.9,6.9v273.5
					C856,461.2,852.9,464.3,849,464.3z"/>
				<path class="st0" d="M845.3,460.5H471.2c-3,0-5.5-2.5-5.5-5.5V186.1c0-3,2.5-5.5,5.5-5.5h374.1c3,0,5.5,2.5,5.5,5.5V455
					C850.8,458,848.3,460.5,845.3,460.5z"/>
				<path class="st3" d="M830.7,435.8h-345c-1.9,0-3.4-1.5-3.4-3.4V197.2c0-1.9,1.5-3.4,3.4-3.4h345c1.9,0,3.4,1.5,3.4,3.4v235.2
					C834.1,434.3,832.6,435.8,830.7,435.8z"/>
				<path class="st2" d="M450.9,449.4c-1.1,2.1-1.8,4.6-1.8,7.2c0,8.4,6.6,15.2,14.8,15.2h388.7c8.2,0,14.8-6.8,14.8-15.2
					c0-2.6-0.7-5-1.8-7.2H450.9z"/>
			</g>
			<path class="st4" d="M450.9,463.7c2.5,4.7,7.4,8,13,8h388.7c5.6,0,10.5-3.3,13-8H450.9z"/>
		</g>
		<path class="st5" d="M838.3,176.9H574.4v180.4c0,4,3.2,7.2,7.1,7.2H856V195C856,185,848,176.9,838.3,176.9z"/>
		<path class="st6" d="M890.2,356.3H586.8c-1.5,0-2.8-1.2-2.8-2.8V158.7c0-1.5,1.2-2.8,2.8-2.8h303.4c1.5,0,2.8,1.2,2.8,2.8v194.9
			C893,355.1,891.8,356.3,890.2,356.3z"/>
		<path class="st7" d="M902.6,342.8H599.2c-1.5,0-2.8-1.2-2.8-2.8V145.1c0-1.5,1.2-2.8,2.8-2.8h303.4c1.5,0,2.8,1.2,2.8,2.8V340
			C905.4,341.6,904.1,342.8,902.6,342.8z"/>
		<path class="st5" d="M542.1,279.1h-36.7c-1,0-1.7-0.8-1.7-1.7V238c0-1,0.8-1.7,1.7-1.7h36.7c1,0,1.7,0.8,1.7,1.7v39.4
			C543.8,278.4,543,279.1,542.1,279.1z"/>
		<path class="st0" d="M539.8,341.4h-36.7c-1,0-1.7-0.8-1.7-1.7v-39.4c0-1,0.8-1.7,1.7-1.7h36.7c1,0,1.7,0.8,1.7,1.7v39.4
			C541.5,340.7,540.7,341.4,539.8,341.4z"/>
		<path class="st0" d="M539.8,402.4h-36.7c-1,0-1.7-0.8-1.7-1.7v-39.4c0-1,0.8-1.7,1.7-1.7h36.7c1,0,1.7,0.8,1.7,1.7v39.4
			C541.5,401.6,540.7,402.4,539.8,402.4z"/>
		<g>
			<path class="st8" d="M530.2,376.2c0-5.4-4.3-9.8-9.5-9.8c-5.3,0-9.5,4.4-9.5,9.8c0,0-1.3,10.3,9.5,18.6
				C531.5,386.5,530.2,376.2,530.2,376.2z"/>
			<path class="st7" d="M521.2,383.3c-4.3,0.3-7.8-3.3-7.5-7.6c0.3-3.4,3-6.2,6.3-6.5c4.3-0.3,7.8,3.3,7.5,7.6
				C527.3,380.2,524.5,383,521.2,383.3z"/>
		</g>
		<g>
			<g>
				<g>
					<path class="st8" d="M533.7,319.4c0,7.5-5.9,13.5-13.2,13.5s-13.2-6-13.2-13.5c0-7.5,5.9-13.5,13.2-13.5S533.7,312,533.7,319.4
						z"/>
					<path class="st7" d="M531.1,319.4c0,6-4.8,10.9-10.7,10.9c-5.9,0-10.7-4.9-10.7-10.9s4.8-10.9,10.7-10.9
						C526.3,308.5,531.1,313.4,531.1,319.4z"/>
					<path class="st9" d="M520.4,308.5c4.8,0,8.9,3.3,10.2,7.8c0.1,0.2,0.2,0.3,0.4,0.3l0,0c0.3,0,0.5-0.3,0.4-0.6
						c-1.4-4.9-5.8-8.4-11-8.4c-5.2,0-9.6,3.6-11,8.4c-0.1,0.3,0.1,0.6,0.4,0.6l0,0c0.2,0,0.4-0.1,0.4-0.3
						C511.5,311.8,515.6,308.5,520.4,308.5z"/>
					<path class="st10" d="M532.3,319.8c-0.6,0-1.2,0.5-1.3,1.1c-0.7,5.3-5.2,9.4-10.6,9.4c-5.4,0-9.9-4.1-10.6-9.4
						c-0.1-0.6-0.6-1.1-1.3-1.1l0,0c-0.8,0-1.4,0.7-1.3,1.5c0.9,6.6,6.4,11.7,13.1,11.7c6.7,0,12.2-5.1,13.1-11.7
						C533.6,320.5,533,319.8,532.3,319.8L532.3,319.8z"/>
					<path class="st7" d="M531.1,319.4c0,6-4.8,10.9-10.7,10.9c-5.9,0-10.7-4.9-10.7-10.9s4.8-10.9,10.7-10.9
						C526.3,308.5,531.1,313.4,531.1,319.4z"/>
					<path class="st8" d="M530.8,322.9c-0.2,0-0.3,0.1-0.4,0.3c-1.5,4.1-5.4,7.1-10,7.1c-4.6,0-8.5-2.9-10-7.1
						c-0.1-0.2-0.2-0.3-0.4-0.3l0,0c-0.3,0-0.5,0.3-0.4,0.6c1.6,4.5,5.8,7.7,10.8,7.7c4.9,0,9.2-3.2,10.8-7.7
						C531.3,323.2,531.1,322.9,530.8,322.9L530.8,322.9z"/>
				</g>
				<path class="st8" d="M520.4,320.4L520.4,320.4c-0.3,0-0.5-0.2-0.5-0.5v-7.7c0-0.3,0.2-0.5,0.5-0.5l0,0c0.3,0,0.5,0.2,0.5,0.5
					v7.7C520.9,320.2,520.7,320.4,520.4,320.4z"/>
				<path class="st8" d="M520,319.6L520,319.6c0.2-0.2,0.5-0.2,0.7-0.1l4.6,4c0.2,0.2,0.2,0.5,0.1,0.7l0,0c-0.2,0.2-0.5,0.2-0.7,0.1
					l-4.6-4C519.9,320.1,519.9,319.8,520,319.6z"/>
			</g>
			<g>
				<rect x="520.1" y="309.3" class="st11" width="0.4" height="1"/>
				<rect x="520.1" y="328.4" class="st11" width="0.4" height="1"/>
			</g>
			<g>
				
					<rect x="510.8" y="318.8" transform="matrix(6.123234e-17 -1 1 6.123234e-17 191.6676 830.3489)" class="st11" width="0.4" height="1"/>
				
					<rect x="529.5" y="318.8" transform="matrix(6.123234e-17 -1 1 6.123234e-17 210.3284 849.0096)" class="st11" width="0.4" height="1"/>
			</g>
			<g>
				<polygon class="st11" points="514.2,312.8 514,313.1 513.2,312.4 513.5,312.1 				"/>
				<polygon class="st11" points="527.4,326.3 527.2,326.6 526.4,325.9 526.7,325.6 				"/>
			</g>
			<g>
				<polygon class="st11" points="514,325.6 514.2,325.9 513.5,326.6 513.2,326.3 				"/>
				<polygon class="st11" points="527.2,312.1 527.4,312.4 526.7,313.1 526.4,312.8 				"/>
			</g>
		</g>
		<g>
			<path class="st0" d="M539.8,277.8h-36.7c-1,0-1.7-0.8-1.7-1.7v-39.4c0-1,0.8-1.7,1.7-1.7h36.7c1,0,1.7,0.8,1.7,1.7v39.4
				C541.5,277,540.7,277.8,539.8,277.8z"/>
			<g>
				<polyline class="st12" points="499.4,273.4 502.7,271 504.2,265.4 502.5,265.1 501.5,267.1 502.5,257.5 500.9,257.8 
					499.2,267.1 497.2,271.5 499.1,272.7 				"/>
				<polygon class="st12" points="519,283.4 519.4,279.4 524.3,274.4 525.4,276 523.6,278 532.9,275.8 532.9,277.8 524.3,281.2 
					522.5,284.3 				"/>
				<g>
					<g>
						<polygon class="st13" points="458.6,383.9 476.6,474.2 490.3,472.7 481,469.2 484.4,468.2 479.5,383.9 						"/>
						<path class="st13" d="M487.3,382.4c0,0,22.9,22,19.5,48.4c-3.9,21-12.2,28.9-12.2,28.9l-2.4-0.5l3.8,10.2l-11-12
							c0,0,13.5-19.1,5.1-38.9c-8.4-19.8-26.7-26.9-26.7-26.9s15.7-14.6,16.8-14.2C481.4,377.8,487.3,382.4,487.3,382.4z"/>
						<g>
							<path class="st14" d="M497.1,270c0,0-37.7,46.8-42.1,56.1c0,0-1.8,3.4-1.8,13.1c0,9.7,3.3,45.7,3.3,45.7l38.4,2.2
								c0,0-12.4-43.8-12.8-44.9c-0.4-1.1-6.6-7.9-12.4-9.4l32.2-59.5L497.1,270z"/>
							<g>
								<path class="st12" d="M473.2,328.3c0,0,1.6,4.9,2.5,7.8c0,0-7.8-0.2-10.6-3.9l2.9-7.2L473.2,328.3z"/>
								<g>
									<path class="st12" d="M479.2,313.1c0,0,2.3,13.8,0,17c-2.3,3.1-10.3-2.2-13.6-7.2c-3.3-5-4-16.3,1.7-17.3
										C472.9,304.7,477.9,308.1,479.2,313.1z"/>
								</g>
							</g>
							<path class="st14" d="M475.6,338.7c0,0,30.2-19.4,32.7-23.4c2.4-4,9.3-33.6,9.3-33.6l5.8,1.5c0,0-3.4,33.1-4.4,36.6
								c-1,3.5-30.7,35.9-37.5,35.9C474.7,355.7,472.2,346.7,475.6,338.7z"/>
						</g>
					</g>
					<path class="st13" d="M462.9,306.2c0,0,4-5.6,11-4.3s8.8-0.2,8.8-0.2s-1.5,7.9-6.4,9.7c-4.9,1.8-6.2,1.4-6.2,1.4
						s2.6,2.7,3.3,4.7s-2.2-2.5-3.3-0.9c-1.1,1.6,0,5,2.2,4.7c2.2-0.2,0.9,1.6,0,3.4c-0.9,1.8-2.2,4.1-3.5,3.4c-1.3-0.7-6-3.4-7.7-9
						C459.4,313.4,459,308,462.9,306.2z"/>
				</g>
			</g>
		</g>
		<path class="st2" d="M706.8,323.2h-90.1c-0.7,0-1.3-0.6-1.3-1.3V164.7c0-0.7,0.6-1.3,1.3-1.3h90.1c0.7,0,1.3,0.6,1.3,1.3v157.2
			C708.1,322.6,707.5,323.2,706.8,323.2z"/>
		<path class="st0" d="M690.3,189.8h-57.9c-0.6,0-1-0.5-1-1v-11.5c0-0.6,0.5-1,1-1h57.9c0.6,0,1,0.5,1,1v11.5
			C691.3,189.3,690.9,189.8,690.3,189.8z"/>
		<path class="st0" d="M651.4,265h-11.9c-2.8,0-5.1-2.3-5.1-5.2l0,0c0-2.9,2.3-5.2,5.1-5.2h11.9c2.8,0,5.1,2.3,5.1,5.2l0,0
			C656.5,262.7,654.2,265,651.4,265z"/>
		<path class="st8" d="M685.8,265h-11.9c-2.8,0-5.1-2.3-5.1-5.2l0,0c0-2.9,2.3-5.2,5.1-5.2h11.9c2.8,0,5.1,2.3,5.1,5.2l0,0
			C690.9,262.7,688.6,265,685.8,265z"/>
		<rect x="630" y="203.3" class="st7" width="64.4" height="10.4"/>
		<rect x="630" y="220.9" class="st7" width="64.4" height="10.4"/>
		<rect x="643.9" y="237.8" class="st15" width="37.1" height="2.4"/>
		<path class="st8" d="M899.1,293.6H783.2c-7.1,0-12.9-5.9-12.9-13.2l0,0c0-7.3,5.8-13.2,12.9-13.2h115.9c7.1,0,12.9,5.9,12.9,13.2
			l0,0C912,287.7,906.2,293.6,899.1,293.6z"/>
		<g>
			<path class="st2" d="M798.8,181.7h-72.2c-5.8,0-10.6-4.9-10.6-10.8l0,0c0-6,4.7-10.8,10.6-10.8h72.2c5.9,0,10.6,4.9,10.6,10.8
				l0,0C809.4,176.8,804.6,181.7,798.8,181.7z"/>
			<path class="st16" d="M743.8,170.8c0,1.9-1.5,3.4-3.3,3.4c-1.8,0-3.3-1.5-3.3-3.4s1.5-3.4,3.3-3.4
				C742.4,167.4,743.8,168.9,743.8,170.8z"/>
			<path class="st17" d="M766.6,170.8c0,1.9-1.5,3.4-3.3,3.4c-1.8,0-3.3-1.5-3.3-3.4s1.5-3.4,3.3-3.4
				C765.1,167.4,766.6,168.9,766.6,170.8z"/>
			<path class="st18" d="M787.5,170.8c0,1.9-1.5,3.4-3.3,3.4c-1.8,0-3.3-1.5-3.3-3.4s1.5-3.4,3.3-3.4
				C786.1,167.4,787.5,168.9,787.5,170.8z"/>
		</g>
		<g>
			<ellipse class="st19" cx="520.9" cy="259" rx="8.1" ry="8.2"/>
			<g>
				<path class="st8" d="M529.3,249h-1.4l-2-2.9c-0.2-0.2-0.4-0.4-0.7-0.4H517c-0.3,0-0.5,0.1-0.7,0.4l-2,2.9h-1.4
					c-2.2,0-4,1.8-4,4.1v12c0,2.3,1.8,4.1,4,4.1h16.5c2.2,0,4-1.8,4-4.1v-12C533.3,250.9,531.5,249,529.3,249z M521.1,265.1
					c-3.3,0-5.9-2.7-5.9-6.1c0-3.3,2.7-6.1,5.9-6.1c3.3,0,5.9,2.7,5.9,6.1C527,262.4,524.3,265.1,521.1,265.1z"/>
				<ellipse class="st0" cx="521.1" cy="259" rx="3.9" ry="4"/>
			</g>
		</g>
		<g>
			<path class="st2" d="M812.4,251.5h-66.9c-1.1,0-2-0.9-2-2v-43.6c0-1.1,0.9-2,2-2h66.9c1.1,0,2,0.9,2,2v43.6
				C814.5,250.6,813.6,251.5,812.4,251.5z"/>
			<path class="st20" d="M779,227.3h-0.1c-0.3,0-0.6-0.1-0.9-0.2l-27.4-15.6c-0.9-0.5-1.2-1.7-0.7-2.6c0.5-0.9,1.6-1.3,2.5-0.7
				l26.5,15.1l26.5-15.1c0.9-0.5,2-0.2,2.5,0.7c0.5,0.9,0.2,2.1-0.7,2.6L780,227.1C779.7,227.2,779.4,227.3,779,227.3z"/>
		</g>
		<path class="st13" d="M916.8,246.6h-84.4c-1,0-1.8-0.8-1.8-1.8V132c0-1,0.8-1.8,1.8-1.8h84.4c1,0,1.8,0.8,1.8,1.8v112.8
			C918.6,245.8,917.8,246.6,916.8,246.6z"/>
		<g>
			<path class="st21" d="M850.2,145.8h-5.9c-0.3,0-0.6-0.5-0.6-1.2l0,0c0-0.6,0.3-1.2,0.6-1.2h5.9c0.3,0,0.6,0.5,0.6,1.2l0,0
				C850.8,145.3,850.5,145.8,850.2,145.8z"/>
			<path class="st21" d="M886.6,145.8H853c-0.3,0-0.6-0.5-0.6-1.2l0,0c0-0.6,0.3-1.2,0.6-1.2h33.6c0.3,0,0.6,0.5,0.6,1.2l0,0
				C887.1,145.3,886.9,145.8,886.6,145.8z"/>
			<path class="st22" d="M863.7,150.6H853c-0.3,0-0.6-0.5-0.6-1.2l0,0c0-0.6,0.3-1.2,0.6-1.2h10.7c0.3,0,0.6,0.5,0.6,1.2l0,0
				C864.3,150.1,864,150.6,863.7,150.6z"/>
			<path class="st2" d="M881.3,150.6h-15.4c-0.3,0-0.6-0.5-0.6-1.2l0,0c0-0.6,0.3-1.2,0.6-1.2h15.4c0.3,0,0.6,0.5,0.6,1.2l0,0
				C881.9,150.1,881.6,150.6,881.3,150.6z"/>
			<path class="st2" d="M886.6,173.9H853c-0.3,0-0.6-0.5-0.6-1.2l0,0c0-0.6,0.3-1.2,0.6-1.2h33.6c0.3,0,0.6,0.5,0.6,1.2l0,0
				C887.1,173.4,886.9,173.9,886.6,173.9z"/>
			<path class="st21" d="M850.2,178.7h-5.9c-0.3,0-0.6-0.5-0.6-1.2l0,0c0-0.6,0.3-1.2,0.6-1.2h5.9c0.3,0,0.6,0.5,0.6,1.2l0,0
				C850.8,178.2,850.5,178.7,850.2,178.7z"/>
			<path class="st2" d="M863.7,178.7H853c-0.3,0-0.6-0.5-0.6-1.2l0,0c0-0.6,0.3-1.2,0.6-1.2h10.7c0.3,0,0.6,0.5,0.6,1.2l0,0
				C864.3,178.2,864,178.7,863.7,178.7z"/>
			<path class="st22" d="M881.3,178.7h-15.4c-0.3,0-0.6-0.5-0.6-1.2l0,0c0-0.6,0.3-1.2,0.6-1.2h15.4c0.3,0,0.6,0.5,0.6,1.2l0,0
				C881.9,178.2,881.6,178.7,881.3,178.7z"/>
			<path class="st22" d="M894.9,155.4H853c-0.3,0-0.6-0.5-0.6-1.2l0,0c0-0.6,0.3-1.2,0.6-1.2h41.9c0.3,0,0.6,0.5,0.6,1.2l0,0
				C895.4,154.9,895.2,155.4,894.9,155.4z"/>
			<path class="st21" d="M886.5,160.2H876c-0.1,0-0.2-0.1-0.2-0.2v-1.9c0-0.1,0.1-0.2,0.2-0.2h10.5c0.1,0,0.2,0.1,0.2,0.2v1.9
				C886.7,160.1,886.6,160.2,886.5,160.2z"/>
			<path class="st2" d="M866.9,160.2H853c-0.3,0-0.6-0.5-0.6-1.2l0,0c0-0.6,0.3-1.2,0.6-1.2h13.9c0.3,0,0.6,0.5,0.6,1.2l0,0
				C867.5,159.7,867.2,160.2,866.9,160.2z"/>
			<path class="st21" d="M874.3,160.2h-5.5c-0.3,0-0.6-0.5-0.6-1.2l0,0c0-0.6,0.3-1.2,0.6-1.2h5.5c0.3,0,0.6,0.5,0.6,1.2l0,0
				C874.9,159.7,874.6,160.2,874.3,160.2z"/>
			<path class="st2" d="M850.2,164.8h-5.9c-0.3,0-0.6-0.5-0.6-1.2l0,0c0-0.6,0.3-1.2,0.6-1.2h5.9c0.3,0,0.6,0.5,0.6,1.2l0,0
				C850.8,164.3,850.5,164.8,850.2,164.8z"/>
			<path class="st2" d="M894.9,164.8H853c-0.3,0-0.6-0.5-0.6-1.2l0,0c0-0.6,0.3-1.2,0.6-1.2h41.9c0.3,0,0.6,0.5,0.6,1.2l0,0
				C895.4,164.3,895.2,164.8,894.9,164.8z"/>
			<path class="st2" d="M850.2,183.2h-5.9c-0.3,0-0.6-0.5-0.6-1.2l0,0c0-0.6,0.3-1.2,0.6-1.2h5.9c0.3,0,0.6,0.5,0.6,1.2l0,0
				C850.8,182.7,850.5,183.2,850.2,183.2z"/>
			<path class="st2" d="M890.6,183.2H876c-0.2,0-0.3-0.1-0.3-0.3v-1.8c0-0.2,0.1-0.3,0.3-0.3h14.6c0.2,0,0.3,0.1,0.3,0.3v1.8
				C890.9,183.1,890.8,183.2,890.6,183.2z"/>
			<path class="st2" d="M866.9,183.2H853c-0.3,0-0.6-0.5-0.6-1.2l0,0c0-0.6,0.3-1.2,0.6-1.2h13.9c0.3,0,0.6,0.5,0.6,1.2l0,0
				C867.5,182.7,867.2,183.2,866.9,183.2z"/>
			<path class="st2" d="M874.3,183.2h-5.5c-0.3,0-0.6-0.5-0.6-1.2l0,0c0-0.6,0.3-1.2,0.6-1.2h5.5c0.3,0,0.6,0.5,0.6,1.2l0,0
				C874.9,182.7,874.6,183.2,874.3,183.2z"/>
			<path class="st23" d="M850.2,187.8h-5.9c-0.3,0-0.6-0.5-0.6-1.2l0,0c0-0.6,0.3-1.2,0.6-1.2h5.9c0.3,0,0.6,0.5,0.6,1.2l0,0
				C850.8,187.3,850.5,187.8,850.2,187.8z"/>
			<path class="st21" d="M860.2,187.8H853c-0.3,0-0.6-0.5-0.6-1.2l0,0c0-0.6,0.3-1.2,0.6-1.2h7.3c0.3,0,0.6,0.5,0.6,1.2l0,0
				C860.8,187.3,860.6,187.8,860.2,187.8z"/>
			<path class="st21" d="M844.4,169.6c-0.3,0-0.6-0.5-0.6-1.2l0,0c0-0.6,0.3-1.2,0.6-1.2h5.9c0.3,0,0.6,0.5,0.6,1.2l0,0
				c0,0.6-0.3,1.2-0.6,1.2"/>
			<path class="st2" d="M892.6,169.6H876c-0.2,0-0.3-0.1-0.3-0.3v-1.7c0-0.2,0.1-0.3,0.3-0.3h16.5c0.2,0,0.3,0.1,0.3,0.3v1.7
				C892.9,169.5,892.7,169.6,892.6,169.6z"/>
			<path class="st23" d="M866.9,169.6H853c-0.3,0-0.6-0.5-0.6-1.2l0,0c0-0.6,0.3-1.2,0.6-1.2h13.9c0.3,0,0.6,0.5,0.6,1.2l0,0
				C867.5,169.1,867.2,169.6,866.9,169.6z"/>
			<path class="st23" d="M874.3,169.6h-5.5c-0.3,0-0.6-0.5-0.6-1.2l0,0c0-0.6,0.3-1.2,0.6-1.2h5.5c0.3,0,0.6,0.5,0.6,1.2l0,0
				C874.9,169.1,874.6,169.6,874.3,169.6z"/>
			<path class="st2" d="M886.6,192.7H853c-0.3,0-0.6-0.5-0.6-1.2l0,0c0-0.6,0.3-1.2,0.6-1.2h33.6c0.3,0,0.6,0.5,0.6,1.2l0,0
				C887.1,192.2,886.9,192.7,886.6,192.7z"/>
			<path class="st2" d="M863.7,197.5H853c-0.3,0-0.6-0.5-0.6-1.2l0,0c0-0.6,0.3-1.2,0.6-1.2h10.7c0.3,0,0.6,0.5,0.6,1.2l0,0
				C864.3,197,864,197.5,863.7,197.5z"/>
			<path class="st2" d="M881.3,197.5h-15.4c-0.3,0-0.6-0.5-0.6-1.2l0,0c0-0.6,0.3-1.2,0.6-1.2h15.4c0.3,0,0.6,0.5,0.6,1.2l0,0
				C881.9,197,881.6,197.5,881.3,197.5z"/>
			<path class="st2" d="M886.6,220.9H853c-0.3,0-0.6-0.5-0.6-1.2l0,0c0-0.6,0.3-1.2,0.6-1.2h33.6c0.3,0,0.6,0.5,0.6,1.2l0,0
				C887.1,220.4,886.9,220.9,886.6,220.9z"/>
			<path class="st22" d="M850.2,225.7h-5.9c-0.3,0-0.6-0.5-0.6-1.2l0,0c0-0.6,0.3-1.2,0.6-1.2h5.9c0.3,0,0.6,0.5,0.6,1.2l0,0
				C850.8,225.2,850.5,225.7,850.2,225.7z"/>
			<path class="st21" d="M863.7,225.7H853c-0.3,0-0.6-0.5-0.6-1.2l0,0c0-0.6,0.3-1.2,0.6-1.2h10.7c0.3,0,0.6,0.5,0.6,1.2l0,0
				C864.3,225.2,864,225.7,863.7,225.7z"/>
			<path class="st2" d="M881.3,225.7h-15.4c-0.3,0-0.6-0.5-0.6-1.2l0,0c0-0.6,0.3-1.2,0.6-1.2h15.4c0.3,0,0.6,0.5,0.6,1.2l0,0
				C881.9,225.2,881.6,225.7,881.3,225.7z"/>
			<path class="st22" d="M850.2,202.3h-5.9c-0.3,0-0.6-0.5-0.6-1.2l0,0c0-0.6,0.3-1.2,0.6-1.2h5.9c0.3,0,0.6,0.5,0.6,1.2l0,0
				C850.8,201.8,850.5,202.3,850.2,202.3z"/>
			<path class="st22" d="M883.4,202.3h-30.7c-0.1,0-0.3-0.1-0.3-0.3v-1.8c0-0.1,0.1-0.3,0.3-0.3h30.7c0.1,0,0.3,0.1,0.3,0.3v1.8
				C883.6,202.2,883.5,202.3,883.4,202.3z"/>
			<path class="st2" d="M850.2,207.1h-5.9c-0.3,0-0.6-0.5-0.6-1.2l0,0c0-0.6,0.3-1.2,0.6-1.2h5.9c0.3,0,0.6,0.5,0.6,1.2l0,0
				C850.8,206.6,850.5,207.1,850.2,207.1z"/>
			<path class="st2" d="M866.9,207.1H853c-0.3,0-0.6-0.5-0.6-1.2l0,0c0-0.6,0.3-1.2,0.6-1.2h13.9c0.3,0,0.6,0.5,0.6,1.2l0,0
				C867.5,206.6,867.2,207.1,866.9,207.1z"/>
			<path class="st2" d="M874.3,207.1h-5.5c-0.3,0-0.6-0.5-0.6-1.2l0,0c0-0.6,0.3-1.2,0.6-1.2h5.5c0.3,0,0.6,0.5,0.6,1.2l0,0
				C874.9,206.6,874.6,207.1,874.3,207.1z"/>
			<path class="st2" d="M850.2,211.8h-5.9c-0.3,0-0.6-0.5-0.6-1.2l0,0c0-0.6,0.3-1.2,0.6-1.2h5.9c0.3,0,0.6,0.5,0.6,1.2l0,0
				C850.8,211.2,850.5,211.8,850.2,211.8z"/>
			<path class="st2" d="M891.4,211.8h-38.7c-0.2,0-0.3-0.1-0.3-0.3v-1.7c0-0.2,0.1-0.3,0.3-0.3h38.7c0.2,0,0.3,0.1,0.3,0.3v1.7
				C891.7,211.6,891.6,211.8,891.4,211.8z"/>
			<path class="st2" d="M850.2,230.1h-5.9c-0.3,0-0.6-0.5-0.6-1.2l0,0c0-0.6,0.3-1.2,0.6-1.2h5.9c0.3,0,0.6,0.5,0.6,1.2l0,0
				C850.8,229.6,850.5,230.1,850.2,230.1z"/>
			<path class="st2" d="M894.8,230.1h-18.5c-0.3,0-0.6-0.5-0.6-1.2l0,0c0-0.6,0.3-1.2,0.6-1.2h18.5c0.3,0,0.6,0.5,0.6,1.2l0,0
				C895.4,229.6,895.1,230.1,894.8,230.1z"/>
			<path class="st2" d="M866.9,230.1H853c-0.3,0-0.6-0.5-0.6-1.2l0,0c0-0.6,0.3-1.2,0.6-1.2h13.9c0.3,0,0.6,0.5,0.6,1.2l0,0
				C867.5,229.6,867.2,230.1,866.9,230.1z"/>
			<path class="st2" d="M874.3,230.1h-5.5c-0.3,0-0.6-0.5-0.6-1.2l0,0c0-0.6,0.3-1.2,0.6-1.2h5.5c0.3,0,0.6,0.5,0.6,1.2l0,0
				C874.9,229.6,874.6,230.1,874.3,230.1z"/>
			<path class="st23" d="M878.1,234.8h-25.5c-0.1,0-0.2-0.1-0.2-0.2v-1.8c0-0.1,0.1-0.2,0.2-0.2h25.5c0.1,0,0.2,0.1,0.2,0.2v1.8
				C878.4,234.6,878.3,234.8,878.1,234.8z"/>
			<path class="st22" d="M893.6,216.6h-17.5c-0.2,0-0.3-0.1-0.3-0.3v-1.7c0-0.2,0.1-0.3,0.3-0.3h17.5c0.2,0,0.3,0.1,0.3,0.3v1.7
				C893.9,216.4,893.7,216.6,893.6,216.6z"/>
			<path class="st23" d="M866.9,216.6H853c-0.3,0-0.6-0.5-0.6-1.2l0,0c0-0.6,0.3-1.2,0.6-1.2h13.9c0.3,0,0.6,0.5,0.6,1.2l0,0
				C867.5,216,867.2,216.6,866.9,216.6z"/>
			<path class="st23" d="M874.3,216.6h-5.5c-0.3,0-0.6-0.5-0.6-1.2l0,0c0-0.6,0.3-1.2,0.6-1.2h5.5c0.3,0,0.6,0.5,0.6,1.2l0,0
				C874.9,216,874.6,216.6,874.3,216.6z"/>
		</g>
		<g>
			<ellipse class="st24" cx="911.5" cy="132.6" rx="18.5" ry="19"/>
			<g>
				<g>
					<path class="st7" d="M910.2,130.8l-7.4,2.8l7.4,2.7v2.8l-10.5-4.1v-2.9l10.5-4.1V130.8z"/>
				</g>
				<g>
					<path class="st7" d="M912.6,128l10.5,4.1v2.9l-10.5,4.1v-2.8l7.4-2.7l-7.4-2.8V128z"/>
				</g>
			</g>
		</g>
		<g>
			<ellipse class="st16" cx="788.9" cy="452.3" rx="20.1" ry="20.6"/>
			<g>
				<path class="st19" d="M799.5,451.1c0,1.3-0.2,2.4-0.6,3.5c-0.4,1.1-1,1.9-1.7,2.5c-0.7,0.6-1.6,0.9-2.5,0.9
					c-0.6,0-1.2-0.2-1.7-0.5c-0.5-0.3-0.8-0.7-1.1-1.2h-0.2c-0.9,1.1-2.1,1.7-3.6,1.7c-1.5,0-2.7-0.5-3.6-1.4
					c-0.9-0.9-1.3-2.2-1.3-3.9c0-1.9,0.6-3.4,1.7-4.5c1.2-1.1,2.7-1.7,4.6-1.7c0.7,0,1.6,0.1,2.5,0.2c0.9,0.1,1.6,0.3,2.2,0.5
					l-0.3,6.5c0,1.2,0.3,1.8,1,1.8c0.6,0,1-0.4,1.3-1.2c0.3-0.8,0.5-1.9,0.5-3.3c0-1.4-0.3-2.7-0.9-3.8c-0.6-1.1-1.4-1.9-2.5-2.5
					c-1.1-0.6-2.3-0.9-3.6-0.9c-1.8,0-3.3,0.4-4.6,1.1c-1.3,0.7-2.3,1.8-3,3.2c-0.7,1.4-1,3-1,4.8c0,2.4,0.6,4.3,1.9,5.6
					c1.3,1.3,3.1,2,5.6,2c0.9,0,1.9-0.1,3-0.3c1.1-0.2,2.2-0.5,3.3-0.9v2.6c-1.9,0.8-3.9,1.2-6.2,1.2c-3.3,0-5.9-0.9-7.7-2.7
					c-1.8-1.8-2.8-4.2-2.8-7.4c0-2.2,0.5-4.2,1.4-6c0.9-1.8,2.3-3.2,4-4.2c1.7-1,3.7-1.5,6-1.5c1.9,0,3.6,0.4,5.1,1.2
					c1.5,0.8,2.7,1.9,3.5,3.4C799.1,447.5,799.5,449.2,799.5,451.1z M786.2,452.7c0,1.9,0.7,2.8,2.2,2.8c0.8,0,1.4-0.3,1.8-0.8
					c0.4-0.6,0.7-1.5,0.7-2.7l0.2-2.9c-0.4-0.1-0.9-0.1-1.5-0.1c-1.1,0-1.9,0.3-2.5,1C786.5,450.6,786.2,451.5,786.2,452.7z"/>
			</g>
		</g>
		<g>
			<path class="st8" d="M687.9,96.5H561.7c-10.2,0-18.6,8.5-18.6,19c0,10.5,8.3,19,18.6,19h9.3l9,9.2l9-9.2h98.9
				c10.2,0,18.6-8.5,18.6-19C706.4,105,698.1,96.5,687.9,96.5z"/>
			<path class="st19" d="M651.8,121.5h-83c-1.1,0-2.1-0.9-2.1-2.1l0,0c0-1.2,0.9-2.1,2.1-2.1h83c1.1,0,2.1,0.9,2.1,2.1l0,0
				C653.8,120.6,652.9,121.5,651.8,121.5z"/>
			<path class="st19" d="M625.8,109.8h-57.1c-1.1,0-2.1-0.9-2.1-2.1l0,0c0-1.2,0.9-2.1,2.1-2.1h57.1c1.1,0,2.1,1,2.1,2.1l0,0
				C627.9,108.9,627,109.8,625.8,109.8z"/>
		</g>
		<g>
			<path class="st12" d="M860.3,336.9c0,0-1.5,4.7-2.4,7.5c0,0,7.6-0.2,10.2-3.8l-2.8-6.9L860.3,336.9z"/>
			<g>
				<polygon class="st25" points="859.1,466.1 859.8,469 864,469.2 863.1,465.6 				"/>
				<path class="st13" d="M859.8,469c0,0-7,3.7-6.9,4c0.1,0.2,11.8-1,11.8-1l-0.7-2.7L859.8,469z"/>
			</g>
			<g>
				<polygon class="st25" points="894.4,460.1 896.1,462.6 900,461.3 897.9,458.3 				"/>
				<path class="st13" d="M896.1,462.6c0,0-5.2,6.1-5.1,6.3c0.1,0.2,10.7-5.3,10.7-5.3l-1.6-2.3L896.1,462.6z"/>
			</g>
			<path class="st16" d="M851.4,388.2c0,0-12,40.1,7.1,78.7h5.6c0,0-11.3-43.7,2.8-79L851.4,388.2z"/>
			<path class="st16" d="M861.8,389.6c0,0,1.9,41.9,32.5,71.7l5.3-1.9c0,0-25-37.2-23.3-75.4L861.8,389.6z"/>
			<g>
				<path class="st25" d="M856.3,295.3l0-2.5c0-0.1,0-0.2,0-0.3l-0.5-1.8l-1.4,0.4l-1.4-1.3c-0.6-0.6-1.5-0.4-1.9,0.4
					c-0.4,0.9-0.9,2.2-1.1,3.1c-0.1,0.4,0.1,0.7,0.3,1l2.1,2.4c0.3,0.3,0.8,0.5,1.2,0.3l1.7-0.5
					C855.9,296.3,856.3,295.8,856.3,295.3z"/>
				<path class="st26" d="M877,349.5c0,0-15.6-17.2-16.7-23.6c-1-6.4-3.3-30.3-3.3-30.3l-4.8,1c0,0-1.7,34.2-0.2,38.1
					c1.5,3.9,10.9,24,17,25.8C875.1,362.3,879.4,356.1,877,349.5z"/>
				<path class="st25" d="M855.3,321.2c0,0-3.5,12-1.3,15c2.2,3,10.5,0.3,13.7-4.6c3.2-4.8,3.8-15.7-1.6-16.7
					C860.6,314.1,856.5,316.3,855.3,321.2z"/>
				<path class="st26" d="M876.4,391.4c0,0,3.2-34.6,3.2-44c0-0.4,0-0.8,0-1.2c-2.4-6.1-8.2-6-10.6-5.5c-2.4,0.5-11.5,3.5-11.5,3.8
					l0,0c-3.2,2.3-5.6,5.1-5.8,5.8c0,0-8.5,18-1.1,39.7L876.4,391.4z"/>
				<path class="st25" d="M831.6,297.1l-0.4-2.4c0-0.1,0-0.2-0.1-0.3l-0.8-1.7l-1.3,0.6l-1.6-1.1c-0.7-0.4-1.6-0.1-1.8,0.7
					c-0.3,1-0.5,2.3-0.5,3.2c0,0.4,0.2,0.7,0.5,0.9l2.5,2c0.4,0.3,0.9,0.3,1.3,0.1l1.6-0.8C831.4,298.1,831.7,297.6,831.6,297.1z"/>
				<path class="st26" d="M861.3,346.7c0,0-18.3-14.1-20.5-20.2c-2.1-6.1-8.5-29.2-8.5-29.2l-4.6,1.8c0,0,4.2,33.9,6.4,37.5
					c2.1,3.6,14.8,21.7,21.2,22.4C861.6,359.7,864.8,352.8,861.3,346.7z"/>
				<path class="st13" d="M868.3,314.9c0,0-9.4-4.1-13.9,4.3c-2.4,5.3,5.2,0.2,6.6,1.9c1.4,1.7-1.9,5.1-0.9,6.3
					c0.9,1.2,2.6-2.2,3.5-0.2c0.9,1.9-1.4,2.2-3.1,4.3c-1.6,2.2,1.4,5.3-0.9,7.2c-2.4,1.9-8.9,3.4-4.9,13.7c4,10.3-6.6,13-2.1,27.2
					c4.5,14.2,34.8,22.1,40.5,5.3c5.6-16.8-13.2-20.9-12-28.4c1.2-7.5,5.4-9.4-0.2-16.8c-5.6-7.5-9.2-11.8-7.5-16.6
					C874.9,318.3,870.4,314.9,868.3,314.9z"/>
			</g>
		</g>
		<path class="st27" d="M894,256.7c-11.2,0-20.2,9.3-20.2,20.7c0,11.4,9.1,20.7,20.2,20.7c11.2,0,20.2-9.3,20.2-20.7
			C914.2,266,905.1,256.7,894,256.7z M883.7,275.8c0-1.4,1.1-2.5,2.5-2.5c1.4,0,2.5,1.1,2.5,2.5s-1.1,2.5-2.5,2.5
			C884.8,278.3,883.7,277.2,883.7,275.8z M894,288.7c-3.3,0-5.9-2.5-6.4-5.7h12.7C899.9,286.2,897.2,288.7,894,288.7z M901.7,278.3
			c-1.4,0-2.5-1.1-2.5-2.5s1.1-2.5,2.5-2.5c1.4,0,2.5,1.1,2.5,2.5S903.1,278.3,901.7,278.3z"/>
		<polygon class="st7" points="593.5,424.6 592.3,422.1 624.4,405.7 664.8,406.4 708.8,389.5 742.3,389.5 778.1,377.3 778.4,377.3 
			807.1,380.7 823.3,372.1 824.6,374.5 807.6,383.4 807.2,383.4 778.4,380 742.5,392.2 709,392.2 665.3,409.1 665,409.1 625,408.5 
					"/>
		<g>
			<path class="st13" d="M711.2,359.6c0,0,31.8,52.6,27.8,89.3l21.6,0.5l-9.3-5.5l2.6-0.5c0,0-7.9-56.8-15.4-76.9
				c-7.9-21.1-10.2-13.3-10.2-13.3L711.2,359.6z"/>
			<path class="st13" d="M699.7,356.3c0,0,1.8,36.6-0.9,50.6c-2.6,14-10.6,41.5-10.6,41.5l20.3,0.5l-5.3-3.8l-3.4-2
				c0,0,14.5-39.7,15.8-58.7s3.5-29.8,3.5-29.8L699.7,356.3z"/>
			<g>
				<polyline class="st12" points="741.2,248.1 744.6,245.7 746,240.2 744.4,239.8 743.4,241.9 744.4,232.2 742.7,232.5 
					741.1,241.9 739.1,246.3 740.9,247.4 				"/>
				<polygon class="st12" points="760.8,258.2 761.3,254.1 766.1,249.1 767.2,250.7 765.5,252.7 774.7,250.5 774.7,252.5 
					766.1,255.9 764.4,259.1 				"/>
				<g>
					<g>
						<g>
							<path class="st0" d="M739,244.7c0,0-37.7,46.8-42.1,56.1c0,0-1.8,3.4-1.8,13.1c0,9.7,3.3,45.7,3.3,45.7l38.4,2.2
								c0,0-12.4-43.8-12.8-44.9c-0.4-1.1-6.6-7.9-12.4-9.4l32.2-59.5L739,244.7z"/>
							<g>
								<path class="st12" d="M715.1,303c0,0,1.6,4.9,2.5,7.8c0,0-7.8-0.2-10.6-3.9l2.9-7.2L715.1,303z"/>
								<g>
									<path class="st12" d="M721,287.9c0,0,2.3,13.8,0,17c-2.3,3.1-10.3-2.2-13.6-7.2c-3.3-5-4-16.3,1.7-17.3
										C714.8,279.4,719.7,282.8,721,287.9z"/>
								</g>
							</g>
							<path class="st0" d="M717.5,313.4c0,0,30.2-19.4,32.7-23.4c2.4-4,9.3-33.6,9.3-33.6l5.8,1.5c0,0-3.4,33.1-4.4,36.6
								c-1,3.5-30.7,35.9-37.5,35.9C716.5,330.4,714.1,321.4,717.5,313.4z"/>
						</g>
					</g>
				</g>
			</g>
			<path class="st13" d="M718.9,284.8c0,0,1.5-5.4-1.8-8.1c-3.3-2.7-9-2.3-9.9-1.4c0,1.6,3.5,2.5,2.6,3.4c-0.9,0.9-5.5,0-6.6,4.7
				c-1.1,4.7,0.4,5.6,0.4,5.6s-2.4,2.9,0.4,7c2.9,4.1,9.4,7.4,11,7c1.6-0.4,0.7-6.8,0.7-6.8s-3.8-0.5-4-2.9
				c-0.2-2.5,1.8-2.7,2.6-1.8c0.9,0.9,1.1,2.9,1.8,2.5c0.7-0.5-0.2-5.2-0.2-5.2S718.5,286.8,718.9,284.8z"/>
		</g>
		<g>
			<path class="st8" d="M736.7,423.1l-22.7,6.4c-6.2,1.8-9.9,8.4-8.2,14.8l4.3,16c1.7,6.4,8.2,10.2,14.5,8.4l6.8-1.9l6.7,6.8
				l2.4-9.3l6.8-1.9c6.2-1.8,9.9-8.4,8.2-14.8l-4.3-16C749.4,425.1,742.9,421.3,736.7,423.1z"/>
			<g>
				<path class="st19" d="M721.7,449.3c0.4,1.4-0.4,2.9-1.8,3.3c-1.4,0.4-2.8-0.4-3.2-1.9c-0.4-1.4,0.4-2.9,1.8-3.3
					C719.9,447,721.3,447.9,721.7,449.3z"/>
				<path class="st19" d="M733.1,446.1c0.4,1.4-0.4,2.9-1.8,3.3c-1.4,0.4-2.8-0.4-3.2-1.9c-0.4-1.4,0.4-2.9,1.8-3.3
					C731.3,443.8,732.7,444.7,733.1,446.1z"/>
				<path class="st19" d="M744.5,442.9c0.4,1.4-0.4,2.9-1.8,3.3c-1.4,0.4-2.8-0.4-3.2-1.9c-0.4-1.4,0.4-2.9,1.8-3.3
					C742.7,440.6,744.2,441.5,744.5,442.9z"/>
			</g>
		</g>
		<ellipse class="st16" cx="624.5" cy="406.4" rx="4.2" ry="4.3"/>
		<ellipse class="st26" cx="778.5" cy="378.9" rx="4.2" ry="4.3"/>
	</g>
</g>
</svg>
