<?xml version="1.0" encoding="utf-8"?>
<!-- Generator: Adobe Illustrator 22.1.0, SVG Export Plug-In . SVG Version: 6.00 Build 0)  -->
<svg version="1.1" xmlns="http://www.w3.org/2000/svg" xmlns:xlink="http://www.w3.org/1999/xlink" x="0px" y="0px"
	 viewBox="0 0 500 500" style="enable-background:new 0 0 500 500;" xml:space="preserve">
<style type="text/css">
	.st0{fill:#0D488E;}
	.st1{opacity:8.000000e-02;clip-path:url(#SVGID_4_);fill:url(#SVGID_5_);}
	.st2{opacity:0.3;clip-path:url(#SVGID_4_);fill:url(#SVGID_6_);}
</style>
<g id="Background">
	<g>
		<g>
			<defs>
				<rect id="SVGID_1_" width="500" height="500"/>
			</defs>
			<clipPath id="SVGID_2_">
				<use xlink:href="#SVGID_1_"  style="overflow:visible;"/>
			</clipPath>
		</g>
	</g>
	<g>
		<g>
			<rect class="st0" width="500" height="500"/>
		</g>
		<g>
			<defs>
				<rect id="SVGID_3_" width="500" height="500"/>
			</defs>
			<clipPath id="SVGID_4_">
				<use xlink:href="#SVGID_3_"  style="overflow:visible;"/>
			</clipPath>
			
				<linearGradient id="SVGID_5_" gradientUnits="userSpaceOnUse" x1="-446.4457" y1="-276.4333" x2="20.8121" y2="67.6298" gradientTransform="matrix(0.9982 8.194600e-02 0.1143 -1.0888 -11.988 441.42)">
				<stop  offset="0" style="stop-color:#0000FF"/>
				<stop  offset="1" style="stop-color:#48A5F9"/>
			</linearGradient>
			<path class="st1" d="M-13.4-33.2c16-8.7,77.7-42.4,152.5-24.9C155-54.4,229.8-36.9,258,25c37.4,82-46.5,154.3-21.8,244.3
				c21.3,77.4,125.9,50.5,159.5,132.6c17.5,42.9,13.5,101.7-11.4,137.3c-77.5,111-438.4,111.4-540.1-111.7
				C-229.7,265.2-142.4,37.2-13.4-33.2z"/>
			
				<linearGradient id="SVGID_6_" gradientUnits="userSpaceOnUse" x1="64.0093" y1="104.6883" x2="456.1389" y2="-156.0808" gradientTransform="matrix(0.9607 0.2775 -0.2775 0.9607 83.4682 -13.5957)">
				<stop  offset="0" style="stop-color:#0000FF"/>
				<stop  offset="1" style="stop-color:#48A5F9"/>
			</linearGradient>
			<path class="st2" d="M419.5,303.2c-0.4,0-0.7,0-1.1,0c-37.6-0.2-80.4-8.9-120.7-24.6c-48.2-18.8-90.8-46.4-123.4-79.9
				C136.9,160.1,114.2,115.8,107,67c-9.9-67.2,10.7-143.9,56.5-210.5c43.5-63.1,103.7-108.4,161.1-121.1h0
				c58.8-13,101.1,1,126.3,15.1c43.2,24.2,69.9,57.2,75.2,93c5.7,38.3-13.8,66.6-34.5,96.5C473-33,453.7-5.1,453.2,31.4
				c-0.4,32.7,21.4,49.7,44.4,67.7c23.2,18.1,47.3,36.8,51.2,73.2c4.1,38.5-13.2,84.2-40.4,106.1
				C488.5,294.6,457.7,303.2,419.5,303.2z M324.7-264.1l0.1,0.5c-57.2,12.7-117.2,57.8-160.5,120.7C118.6-76.6,98.1-0.1,108,66.8
				c13.4,90.8,84.5,169.6,190.1,210.8c40.2,15.7,82.9,24.4,120.4,24.6c0.4,0,0.7,0,1.1,0c38,0,68.5-8.4,88.3-24.5
				c27-21.8,44.2-67,40.1-105.3c-3.9-36-27.7-54.6-50.8-72.6c-23.3-18.1-45.2-35.3-44.8-68.5c0.5-36.9,19.8-64.9,38.5-91.9
				c20.6-29.7,40-57.8,34.3-95.8c-5.3-35.5-31.8-68.3-74.7-92.3c-25-14-67.1-28-125.6-15L324.7-264.1z"/>
		</g>
	</g>
	<g>
		<g>
			<defs>
				<rect id="SVGID_7_" width="500" height="500"/>
			</defs>
			<clipPath id="SVGID_8_">
				<use xlink:href="#SVGID_7_"  style="overflow:visible;"/>
			</clipPath>
		</g>
	</g>
</g>
<g id="Objects">
</g>
<g id="Designed_by_Freepik">
</g>
</svg>
